<?xml version="1.0" standalone="no"?>
<!DOCTYPE svg PUBLIC "-//W3C//DTD SVG 20010904//EN"
 "http://www.w3.org/TR/2001/REC-SVG-20010904/DTD/svg10.dtd">
<svg version="1.0" xmlns="http://www.w3.org/2000/svg"
 width="5000.000000pt" height="3125.000000pt" viewBox="0 0 5000.000000 3125.000000"
 preserveAspectRatio="xMidYMid meet">

<g transform="translate(0.000000,3125.000000) scale(0.100000,-0.100000)"
fill="#000000" stroke="none">
<path d="M25122 30908 c-88 -70 -86 -66 -91 -303 l-3 -210 -30 -43 c-42 -60
-61 -69 -171 -76 -86 -6 -103 -10 -137 -35 -79 -57 -92 -82 -98 -186 -6 -117
3 -176 31 -208 12 -13 27 -32 32 -41 12 -20 70 -35 135 -36 25 0 74 -11 110
-24 59 -21 68 -29 97 -77 l32 -54 1 -632 c0 -442 -3 -634 -11 -639 -6 -3 -18
-19 -28 -35 -26 -43 -90 -89 -123 -89 -40 0 -78 -22 -121 -69 -40 -45 -44 -55
-51 -158 -2 -39 -12 -86 -21 -103 -9 -17 -20 -70 -26 -117 -5 -47 -18 -106
-29 -132 -11 -25 -24 -89 -29 -141 -5 -52 -18 -117 -29 -145 -10 -27 -22 -87
-26 -133 -4 -45 -16 -106 -27 -134 -11 -29 -24 -93 -28 -143 -4 -50 -17 -120
-29 -155 -11 -36 -25 -106 -31 -156 -5 -51 -17 -106 -26 -124 -9 -18 -20 -75
-25 -138 -5 -59 -18 -132 -29 -162 -10 -30 -22 -98 -26 -150 -4 -52 -17 -126
-30 -165 -15 -49 -24 -106 -28 -191 -4 -83 -12 -139 -27 -180 -14 -42 -23
-105 -30 -205 -5 -86 -15 -162 -25 -189 -10 -28 -20 -102 -26 -195 -10 -172
-15 -213 -35 -273 -8 -24 -19 -95 -24 -157 -6 -77 -15 -126 -28 -152 -11 -21
-23 -72 -27 -115 -4 -45 -15 -91 -26 -113 -11 -20 -24 -73 -29 -117 -6 -47
-17 -92 -29 -111 -12 -21 -22 -60 -26 -112 -4 -48 -15 -96 -27 -120 -13 -26
-23 -73 -29 -136 -4 -53 -17 -118 -28 -146 -13 -34 -23 -95 -30 -180 -6 -78
-16 -144 -27 -168 -11 -26 -20 -87 -25 -170 -5 -80 -17 -156 -30 -199 -13 -43
-24 -119 -29 -200 -5 -80 -16 -154 -28 -191 -12 -37 -22 -105 -26 -177 -4 -82
-12 -133 -27 -169 -13 -35 -23 -92 -29 -173 -5 -73 -16 -145 -28 -181 -12 -35
-23 -104 -27 -163 -4 -57 -16 -133 -27 -170 -13 -45 -22 -116 -27 -214 -7
-116 -12 -154 -28 -185 -12 -23 -23 -71 -28 -118 -4 -44 -17 -105 -30 -135
-12 -30 -25 -85 -28 -122 -4 -39 -15 -85 -28 -110 -14 -27 -25 -73 -30 -124
-4 -50 -15 -95 -28 -119 -12 -22 -21 -58 -21 -80 0 -60 -19 -164 -36 -196 -8
-17 -18 -81 -24 -151 -5 -68 -18 -150 -28 -183 -11 -36 -22 -107 -26 -177 -4
-73 -14 -140 -26 -180 -14 -42 -24 -112 -30 -209 -5 -86 -16 -164 -25 -190 -9
-24 -22 -112 -30 -195 -8 -83 -21 -169 -29 -190 -9 -21 -20 -68 -25 -103 -9
-54 -17 -71 -48 -104 -51 -52 -87 -67 -141 -57 -23 4 -50 14 -60 23 -9 8 -31
22 -49 31 -21 11 -35 28 -43 53 -7 21 -21 52 -31 69 -11 18 -23 63 -28 100 -5
38 -18 89 -29 114 -11 25 -23 77 -27 115 -4 39 -16 88 -26 110 -11 23 -23 82
-28 139 -8 77 -14 103 -30 120 -12 12 -21 27 -21 33 0 16 -81 86 -89 76 -21
-24 -71 -217 -76 -292 -3 -46 -15 -109 -26 -140 -12 -32 -24 -101 -29 -161 -5
-62 -16 -126 -28 -155 -12 -30 -22 -90 -26 -152 -4 -55 -11 -127 -16 -160 -7
-49 -5 -63 11 -89 25 -42 57 -48 131 -28 l61 18 53 -28 c67 -35 84 -62 95
-148 5 -38 16 -90 25 -116 8 -26 20 -108 25 -182 6 -79 18 -162 30 -201 11
-38 24 -120 29 -195 6 -83 16 -149 29 -184 12 -34 22 -97 27 -165 4 -71 15
-136 30 -183 13 -40 24 -81 24 -91 0 -18 62 -102 81 -109 4 -2 13 16 18 40 6
24 21 61 33 83 15 27 24 68 29 130 4 50 16 113 27 140 12 30 22 91 27 150 4
55 16 125 26 155 12 32 24 104 29 171 6 76 17 135 30 170 14 35 24 92 30 168
5 70 15 132 25 156 10 24 21 86 26 152 5 67 16 135 29 170 13 35 24 104 30
175 5 74 15 128 26 149 10 21 20 76 26 152 6 77 16 138 30 171 13 33 23 92 28
166 6 70 16 135 28 165 11 29 22 91 26 149 4 57 15 122 27 155 11 32 24 104
29 169 6 66 16 125 26 144 9 18 21 86 29 163 8 80 20 146 30 165 10 20 20 76
26 151 6 84 15 134 29 167 14 32 22 77 26 142 3 58 14 124 29 170 14 46 25
113 29 171 3 62 13 115 26 149 12 32 24 94 30 163 5 62 18 137 28 167 11 30
23 100 27 155 4 57 15 124 26 155 12 32 24 103 29 171 6 71 17 136 28 165 12
30 22 90 27 154 4 60 16 131 27 165 12 34 24 109 29 172 5 62 16 129 24 150 9
21 23 99 30 173 7 77 20 153 30 175 10 24 20 87 25 156 6 70 17 139 29 175 12
34 25 109 30 174 6 67 19 139 31 172 11 32 20 81 20 110 0 78 18 185 36 220
10 20 19 75 24 152 5 80 15 138 28 171 12 32 21 87 25 151 4 66 14 123 27 160
14 38 25 101 30 176 5 66 16 133 25 155 9 21 23 97 30 169 7 72 21 148 30 170
10 23 21 87 26 154 5 69 16 137 28 171 11 31 23 97 26 150 4 52 17 130 30 174
13 46 26 122 29 178 4 60 14 116 26 147 13 33 23 94 29 174 6 81 15 136 26
157 11 21 21 77 27 153 7 77 18 139 30 171 13 31 23 91 29 162 5 63 16 129 25
150 9 21 22 97 29 169 7 77 19 143 29 162 9 17 20 72 26 123 7 70 14 97 30
114 11 11 20 26 20 33 0 16 59 82 74 82 6 0 34 11 61 25 58 28 121 31 180 9
22 -9 71 -21 108 -28 39 -8 77 -22 90 -33 12 -12 33 -24 47 -28 33 -10 72 -40
126 -95 34 -35 46 -57 55 -98 6 -30 18 -70 26 -90 10 -23 19 -95 24 -192 6
-89 18 -189 29 -236 12 -47 24 -144 29 -235 6 -106 14 -166 26 -194 10 -26 20
-91 27 -180 6 -87 17 -163 29 -200 12 -37 23 -111 29 -190 5 -80 17 -154 29
-193 13 -39 23 -106 27 -180 4 -74 14 -139 26 -177 13 -40 23 -106 28 -196 6
-92 15 -159 30 -205 15 -49 23 -106 27 -199 3 -84 12 -155 24 -200 13 -45 23
-127 29 -232 6 -103 17 -190 30 -241 14 -54 24 -136 30 -249 5 -103 15 -187
25 -218 9 -27 22 -131 30 -230 8 -99 21 -205 30 -235 8 -30 19 -120 24 -200 5
-81 16 -163 24 -186 18 -50 37 -195 37 -287 0 -42 8 -89 20 -125 15 -40 23
-102 30 -207 7 -99 17 -171 30 -213 13 -43 23 -115 30 -223 10 -158 6 -232
-13 -256 -30 -39 -184 -34 -249 8 -99 64 -126 78 -163 84 -22 3 -62 11 -90 17
-75 15 -202 -12 -271 -57 -62 -41 -201 -187 -220 -231 -7 -17 -20 -36 -28 -43
-8 -7 -22 -34 -31 -61 -9 -27 -22 -54 -30 -60 -8 -6 -17 -32 -21 -56 -3 -24
-15 -55 -25 -68 -12 -15 -23 -55 -30 -102 -6 -42 -19 -99 -29 -125 -12 -30
-23 -96 -30 -174 -5 -70 -18 -152 -27 -183 -26 -83 -26 -469 0 -557 9 -33 22
-107 27 -165 7 -68 18 -118 30 -143 11 -21 24 -67 29 -102 5 -34 17 -74 26
-88 9 -14 23 -49 30 -77 8 -29 20 -59 28 -69 9 -9 20 -36 27 -61 7 -25 18 -52
26 -61 7 -8 19 -30 25 -48 14 -40 70 -124 108 -163 41 -42 131 -98 158 -98 12
0 45 -9 73 -20 59 -23 137 -26 184 -6 18 7 57 19 86 25 29 6 66 23 82 36 16
14 36 25 43 25 20 0 125 119 146 166 10 22 27 49 39 59 11 10 20 25 20 34 0 9
7 27 15 41 8 14 26 48 39 75 39 76 76 113 138 135 54 19 56 19 92 0 43 -21
109 -93 121 -130 4 -13 16 -36 26 -50 14 -20 20 -59 28 -195 6 -108 16 -186
26 -215 10 -27 20 -104 26 -197 7 -104 16 -170 29 -209 15 -41 22 -98 27 -194
4 -90 12 -155 25 -195 12 -38 22 -115 29 -210 6 -98 17 -173 30 -217 14 -47
23 -114 29 -225 5 -102 14 -174 24 -203 23 -61 39 -282 32 -415 -5 -87 -11
-116 -26 -137 -11 -15 -24 -46 -29 -70 -6 -23 -16 -47 -24 -53 -8 -5 -23 -31
-35 -58 -11 -26 -25 -47 -31 -47 -5 0 -13 -9 -16 -20 -4 -11 -16 -32 -28 -45
-12 -14 -38 -48 -57 -76 -19 -28 -47 -65 -62 -83 -15 -17 -39 -45 -53 -63 -35
-42 -154 -162 -189 -190 -18 -15 -41 -23 -65 -23 -31 0 -46 9 -99 60 -61 58
-132 170 -132 208 0 9 -11 38 -24 63 -13 25 -28 63 -32 84 -3 22 -17 58 -30
81 -13 22 -24 54 -24 71 0 16 -11 50 -23 74 -13 24 -27 62 -31 84 -4 21 -19
59 -32 84 -13 25 -24 59 -24 76 0 17 -11 50 -24 75 -13 25 -29 64 -35 88 -9
31 -21 48 -44 62 l-32 20 -34 -41 c-33 -40 -61 -86 -99 -164 -11 -22 -27 -46
-36 -54 -9 -7 -16 -22 -16 -31 0 -10 -11 -31 -24 -47 -13 -15 -31 -44 -40 -63
-9 -19 -32 -60 -51 -90 -19 -30 -42 -71 -51 -90 -9 -19 -24 -44 -34 -55 -10
-11 -23 -37 -30 -57 -6 -21 -18 -41 -25 -45 -7 -5 -23 -28 -34 -53 -12 -25
-35 -65 -51 -90 -16 -25 -38 -63 -49 -85 -10 -22 -25 -46 -34 -53 -9 -8 -21
-30 -28 -50 -7 -20 -21 -49 -33 -64 -12 -14 -42 -56 -68 -91 -41 -56 -55 -68
-100 -83 -104 -36 -163 -16 -291 99 -131 118 -105 93 -390 376 -214 212 -250
244 -284 250 -92 16 -123 -7 -293 -213 -236 -288 -317 -388 -350 -431 -19 -26
-47 -61 -63 -78 -43 -50 -93 -114 -162 -207 -16 -23 -41 -54 -55 -70 -14 -15
-35 -43 -48 -62 -12 -18 -34 -49 -47 -68 -14 -19 -32 -50 -41 -69 -8 -18 -24
-45 -34 -60 -32 -46 -35 -216 -3 -216 11 0 53 50 113 132 19 26 55 73 80 103
25 30 61 77 80 103 19 26 70 91 112 143 43 52 83 105 90 117 6 12 45 63 87
114 42 51 90 111 106 133 85 115 239 292 268 306 17 9 40 24 50 32 29 26 120
22 150 -6 13 -12 28 -22 33 -22 10 0 130 -124 175 -180 28 -36 79 -103 114
-150 17 -23 39 -51 50 -63 27 -30 60 -75 85 -117 11 -19 36 -55 55 -80 19 -25
46 -61 59 -80 13 -19 50 -63 82 -98 55 -58 63 -63 112 -69 l53 -6 57 59 c60
62 88 101 122 171 11 23 25 45 31 49 6 3 20 27 31 53 10 25 28 55 38 66 10 11
21 31 25 45 4 14 13 32 20 40 8 8 32 51 55 95 23 44 50 89 60 100 10 11 21 34
24 51 4 17 18 42 31 54 13 12 27 35 30 51 4 15 13 33 22 41 9 7 24 31 35 53
46 98 105 171 174 214 28 18 58 26 105 29 77 5 85 2 132 -55 27 -33 36 -55 42
-99 4 -31 16 -74 26 -95 11 -20 24 -73 29 -116 5 -43 17 -100 28 -128 11 -27
22 -83 26 -123 3 -42 15 -90 26 -112 12 -24 23 -70 26 -117 4 -44 16 -102 29
-133 12 -30 26 -86 30 -125 4 -38 18 -96 31 -127 13 -32 24 -64 24 -72 0 -8
11 -27 24 -41 13 -14 30 -35 38 -47 13 -20 15 -20 45 -5 63 33 98 78 167 212
14 28 30 57 36 65 5 8 16 31 25 50 8 19 19 42 25 50 5 8 16 31 25 50 8 19 22
46 30 60 8 14 22 41 30 60 8 19 22 46 30 60 9 14 20 36 26 50 6 14 26 52 44
85 19 33 43 78 53 100 27 56 126 161 159 170 15 3 38 14 52 24 14 10 44 21 66
25 47 8 93 -16 121 -61 10 -15 25 -35 33 -44 44 -46 141 -187 141 -205 0 -6 9
-19 20 -29 10 -9 24 -34 31 -54 6 -20 22 -47 34 -61 13 -14 26 -36 30 -50 4
-14 15 -34 25 -45 9 -11 26 -38 37 -60 47 -95 57 -111 73 -130 10 -11 23 -36
29 -56 7 -20 20 -44 30 -53 11 -10 22 -33 25 -51 4 -19 13 -38 20 -42 7 -5 23
-27 35 -50 12 -24 34 -49 51 -58 62 -32 137 -10 161 47 7 18 22 46 33 61 19
25 21 43 21 150 -1 104 -4 131 -25 187 -25 64 -25 68 -24 395 0 311 1 335 23
410 14 53 25 130 31 227 6 93 15 161 25 185 11 25 20 94 26 196 9 133 14 166
35 210 13 29 24 57 24 63 0 6 21 28 48 49 46 36 49 37 117 33 60 -3 76 -8 118
-38 36 -26 50 -43 58 -75 6 -22 17 -50 25 -63 17 -26 33 -178 34 -314 0 -68 6
-114 20 -160 15 -45 23 -112 30 -238 7 -116 17 -199 30 -245 12 -42 23 -128
28 -216 6 -103 14 -156 26 -180 10 -19 21 -56 27 -83 6 -31 23 -67 46 -97 40
-52 45 -51 58 11 4 19 17 53 30 75 12 22 25 65 29 95 4 30 16 69 27 87 15 25
22 61 29 152 5 65 16 138 25 162 8 24 20 95 25 158 7 74 17 129 30 159 11 25
25 85 30 133 5 48 16 101 25 118 9 18 20 71 26 119 6 48 19 108 30 134 10 26
23 87 28 136 6 53 18 104 30 128 14 27 22 69 27 142 6 98 6 104 -12 100 -19
-3 -25 -25 -39 -140 -4 -26 -13 -54 -21 -63 -8 -8 -20 -43 -25 -77 -6 -35 -21
-79 -33 -98 -12 -19 -28 -48 -36 -64 -10 -19 -29 -34 -54 -43 -22 -7 -47 -20
-56 -28 -21 -19 -84 -20 -99 -1 -6 7 -32 21 -56 31 -36 13 -53 28 -81 73 -32
50 -37 66 -44 152 -5 53 -18 119 -29 147 -12 30 -22 89 -26 149 -4 55 -16 124
-27 154 -11 33 -23 104 -28 175 -6 84 -15 134 -29 167 -14 30 -23 79 -27 140
-4 61 -14 112 -29 148 -12 30 -25 82 -29 114 -4 33 -16 74 -27 92 -11 18 -22
57 -26 86 -8 71 -18 88 -52 88 -26 0 -33 -8 -65 -73 -27 -55 -39 -94 -46 -156
-5 -46 -17 -95 -25 -108 -9 -13 -20 -65 -26 -116 -5 -51 -18 -112 -28 -137
-11 -25 -24 -83 -29 -130 -6 -47 -20 -105 -30 -130 -11 -25 -23 -65 -27 -90
-9 -56 -65 -125 -107 -134 -60 -12 -101 3 -167 63 l-63 56 -8 86 c-5 47 -15
100 -24 118 -11 20 -20 78 -26 162 -6 72 -16 143 -24 157 -20 40 -25 70 -35
194 -6 62 -17 130 -26 152 -9 21 -21 92 -26 158 -6 75 -17 137 -30 170 -12 32
-23 92 -28 162 -5 62 -16 128 -25 151 -9 22 -23 98 -30 170 -7 71 -21 148 -30
169 -9 22 -21 90 -26 152 -5 68 -15 125 -25 144 -10 19 -22 84 -29 154 -8 70
-20 135 -30 154 -9 18 -21 77 -27 139 -5 61 -18 130 -29 158 -12 29 -24 95
-29 156 -6 65 -16 119 -26 140 -11 21 -21 73 -26 144 -5 75 -15 125 -29 157
-14 32 -22 78 -26 145 -3 58 -15 131 -29 178 -14 46 -26 121 -30 178 -3 62
-13 116 -26 149 -13 34 -23 93 -29 172 -5 75 -17 142 -29 177 -12 33 -23 97
-27 160 -4 60 -15 127 -26 159 -11 32 -23 104 -28 170 -5 71 -17 137 -30 173
-12 35 -23 96 -27 155 -3 57 -13 117 -25 147 -11 30 -23 97 -28 166 -6 73 -17
135 -29 167 -12 30 -24 95 -29 160 -6 64 -17 122 -26 141 -10 19 -21 78 -27
149 -6 64 -16 130 -24 147 -22 52 -25 64 -35 176 -5 63 -16 122 -25 140 -10
19 -22 84 -29 163 -8 82 -19 143 -30 163 -10 21 -20 75 -25 150 -6 76 -17 136
-29 169 -13 33 -23 89 -28 160 -4 67 -14 127 -26 157 -11 29 -22 97 -28 165
-5 66 -18 141 -29 172 -11 33 -24 105 -29 176 -6 78 -16 132 -27 154 -11 22
-20 72 -25 154 -5 79 -15 142 -29 182 -13 37 -25 106 -30 180 -6 69 -17 136
-26 159 -10 22 -21 89 -26 150 -5 60 -19 139 -30 173 -12 37 -24 111 -29 175
-5 67 -16 134 -28 167 -12 32 -23 98 -27 155 -4 56 -16 124 -27 155 -12 35
-22 100 -28 181 -6 96 -13 135 -29 166 -11 23 -23 60 -27 83 -7 43 -61 119
-93 131 -9 4 -34 19 -55 33 -23 15 -53 26 -72 26 -21 0 -42 9 -60 25 -15 14
-30 25 -34 25 -3 0 -21 20 -38 45 l-32 46 0 620 0 620 32 59 c30 54 37 60 98
83 36 14 89 28 119 31 62 8 106 28 121 55 6 12 10 93 10 194 l0 174 -41 33
c-37 30 -51 34 -144 44 -57 7 -110 17 -118 24 -8 7 -28 31 -43 54 l-29 41 -5
206 -5 207 -30 36 c-17 21 -56 51 -88 68 -47 25 -68 30 -125 30 -63 0 -73 -3
-110 -32z m700 -9811 c15 -7 43 -34 63 -60 30 -40 39 -61 46 -117 4 -38 16
-86 24 -107 10 -22 20 -89 25 -163 7 -87 16 -143 32 -185 19 -52 22 -80 22
-215 1 -137 -2 -162 -21 -215 -15 -39 -26 -101 -32 -177 -6 -64 -17 -133 -26
-155 -10 -21 -21 -71 -26 -111 -7 -62 -13 -78 -45 -116 -40 -48 -76 -60 -136
-47 -55 13 -146 122 -164 196 -4 17 -17 50 -30 75 -15 29 -24 62 -24 92 0 26
-9 96 -21 155 -18 92 -20 131 -16 263 4 85 11 174 16 197 6 23 15 88 20 145 6
69 15 116 29 143 11 22 23 69 27 105 4 36 16 81 26 101 10 20 23 57 30 83 9
38 20 53 58 79 72 51 81 53 123 34z"/>
<path d="M16195 23881 c-60 -5 -103 -14 -130 -28 -22 -11 -65 -24 -95 -28 -30
-4 -70 -16 -89 -28 -18 -11 -54 -24 -79 -29 -25 -4 -55 -17 -66 -27 -12 -10
-45 -24 -75 -30 -29 -6 -65 -20 -78 -31 -14 -11 -39 -20 -55 -20 -15 0 -54
-13 -85 -30 -31 -16 -66 -30 -78 -30 -33 0 -109 -66 -116 -102 -6 -28 10 -58
31 -58 5 0 25 -11 44 -24 34 -23 42 -23 288 -28 229 -5 258 -7 307 -27 32 -13
88 -24 135 -28 46 -3 100 -14 126 -25 25 -11 72 -24 105 -29 33 -6 81 -21 107
-34 26 -14 60 -25 74 -25 15 0 46 -11 68 -24 23 -13 58 -27 78 -31 20 -4 51
-18 69 -31 18 -13 41 -24 50 -24 23 0 69 -21 69 -31 0 -5 19 -14 43 -20 23 -7
51 -21 63 -31 12 -10 37 -23 57 -29 20 -5 43 -16 51 -24 8 -9 34 -24 58 -36
24 -11 64 -32 89 -47 26 -15 70 -39 97 -54 28 -15 53 -32 57 -38 3 -6 21 -17
38 -25 77 -36 232 -172 339 -296 87 -101 105 -124 122 -154 9 -16 30 -48 47
-70 49 -66 103 -148 116 -177 7 -16 17 -28 23 -28 6 0 20 -19 31 -42 23 -51
55 -104 87 -142 12 -16 22 -34 22 -41 0 -13 37 -66 89 -126 27 -31 40 -39 68
-39 52 0 84 22 165 112 131 147 162 181 223 246 159 170 319 321 380 361 38
24 69 47 125 92 46 37 109 84 145 109 20 14 52 37 70 53 18 15 37 27 42 27 6
0 28 12 49 26 21 15 56 33 78 41 22 7 47 20 56 28 9 8 46 19 82 24 36 5 80 17
98 26 19 10 65 21 103 26 38 5 83 17 101 28 17 11 56 24 87 29 31 6 71 20 90
30 19 11 56 23 82 27 27 3 69 17 94 31 28 14 63 24 88 24 24 0 74 12 111 26
68 26 75 27 369 31 326 5 554 -6 625 -31 25 -9 104 -21 176 -26 84 -6 152 -16
187 -29 35 -12 100 -22 169 -27 62 -3 154 -17 203 -29 88 -21 125 -22 125 -3
0 23 -42 67 -69 73 -16 3 -35 13 -42 22 -7 8 -37 26 -66 39 -29 12 -53 27 -53
33 0 5 -17 15 -37 21 -21 7 -47 20 -58 29 -11 9 -56 35 -100 57 -44 21 -95 49
-114 62 -18 12 -41 22 -50 22 -10 0 -32 11 -50 24 -18 14 -51 28 -74 32 -23 3
-53 15 -67 25 -14 10 -52 23 -86 28 -33 5 -78 18 -100 29 -27 14 -77 24 -167
32 -70 6 -161 18 -203 25 -97 19 -212 19 -311 0 -43 -8 -143 -20 -223 -26
-106 -8 -155 -16 -183 -30 -21 -11 -76 -23 -122 -28 -56 -6 -95 -15 -118 -30
-19 -11 -56 -24 -83 -27 -27 -3 -61 -14 -76 -25 -15 -10 -48 -23 -75 -29 -26
-6 -60 -20 -75 -31 -15 -11 -42 -22 -60 -26 -18 -3 -45 -16 -60 -29 -15 -12
-41 -25 -57 -29 -16 -3 -35 -13 -42 -21 -7 -9 -29 -24 -48 -35 -57 -31 -140
-91 -180 -129 -45 -44 -165 -144 -211 -175 -23 -16 -52 -39 -64 -50 -11 -12
-32 -28 -46 -38 -14 -9 -45 -33 -70 -52 -25 -19 -57 -41 -72 -50 -15 -8 -38
-25 -52 -38 -51 -45 -82 -69 -136 -103 -49 -31 -62 -34 -127 -34 -39 0 -83 4
-98 10 -39 15 -170 150 -202 210 -54 99 -62 112 -80 134 -11 11 -24 33 -31 48
-6 15 -18 35 -27 45 -37 42 -85 105 -85 113 0 23 -182 232 -320 368 -30 30
-83 77 -117 105 -35 28 -63 54 -63 59 0 4 -15 15 -32 23 -32 15 -77 44 -128
83 -14 10 -41 24 -61 31 -20 6 -44 20 -53 30 -10 11 -32 22 -51 25 -18 4 -44
15 -58 26 -13 11 -46 24 -73 30 -27 6 -62 19 -79 30 -16 10 -57 21 -89 25 -33
4 -83 18 -111 31 -49 23 -65 24 -301 28 -137 2 -289 1 -339 -3z"/>
<path d="M29950 22593 c-14 -2 -52 -12 -85 -23 -33 -10 -86 -21 -117 -25 -31
-3 -67 -14 -80 -24 -13 -10 -41 -24 -63 -31 -22 -7 -44 -18 -50 -24 -5 -6 -24
-21 -41 -31 -17 -11 -52 -34 -78 -52 l-48 -32 39 -10 c21 -6 60 -11 86 -11 27
0 81 -11 120 -24 40 -13 106 -27 147 -31 42 -4 99 -17 132 -31 32 -13 75 -24
96 -24 22 0 59 -10 83 -23 24 -13 62 -27 84 -31 22 -4 56 -18 75 -31 19 -12
51 -26 71 -29 20 -4 44 -15 54 -26 9 -10 31 -22 49 -25 17 -4 42 -17 56 -30
14 -12 39 -27 55 -32 30 -10 88 -45 137 -82 14 -12 31 -21 37 -21 12 0 139
-107 191 -161 75 -79 143 -156 181 -209 56 -77 70 -96 102 -134 15 -19 27 -36
27 -40 0 -3 18 -32 39 -64 78 -114 132 -103 261 58 119 148 155 182 360 350
61 51 103 80 123 86 12 3 33 16 47 29 14 12 42 28 62 34 20 7 42 18 48 26 7 8
27 17 45 21 19 3 48 17 66 30 18 13 45 24 59 24 15 0 48 11 74 25 27 14 76 28
119 34 40 5 89 17 108 26 50 26 178 34 687 41 l453 7 -21 22 c-11 12 -20 26
-20 32 0 6 -13 16 -30 23 -16 7 -39 21 -52 31 -12 11 -33 22 -47 25 -14 4 -45
17 -68 30 -23 13 -70 28 -106 33 -35 5 -80 17 -98 28 -30 16 -63 18 -265 21
-216 3 -235 2 -295 -19 -35 -12 -97 -25 -137 -30 -42 -5 -87 -17 -105 -28 -18
-11 -50 -23 -72 -26 -22 -4 -60 -18 -85 -30 -25 -12 -76 -37 -115 -56 -38 -19
-85 -46 -103 -61 -18 -16 -39 -28 -46 -28 -13 0 -46 -24 -94 -70 -62 -58 -159
-138 -182 -150 -14 -7 -36 -22 -50 -32 -14 -11 -42 -32 -64 -49 -21 -16 -47
-29 -56 -29 -10 0 -29 -9 -43 -20 -14 -12 -40 -20 -61 -20 -20 0 -53 9 -73 20
-21 11 -44 20 -52 20 -19 0 -587 579 -614 625 -23 41 -126 124 -187 150 -19 9
-42 20 -50 25 -30 20 -56 28 -135 44 -44 8 -105 22 -135 31 -51 14 -281 20
-350 8z"/>
<path d="M29783 20367 c-41 -52 -71 -127 -75 -187 -3 -36 -14 -85 -25 -110
-11 -25 -24 -79 -28 -120 -3 -41 -15 -95 -26 -120 -11 -25 -24 -82 -29 -126
-5 -45 -17 -102 -28 -125 -11 -24 -23 -78 -27 -119 -4 -41 -16 -95 -27 -120
-10 -25 -24 -85 -29 -135 -6 -49 -19 -109 -30 -132 -10 -23 -23 -82 -28 -132
-5 -49 -17 -104 -27 -123 -26 -50 -46 -368 -23 -368 7 0 27 16 46 35 63 65 74
69 202 69 143 1 162 -7 209 -88 l35 -59 7 -196 c6 -144 12 -208 24 -241 11
-28 21 -102 27 -195 6 -88 18 -180 30 -222 12 -45 23 -130 29 -225 5 -98 15
-169 25 -198 11 -30 20 -102 26 -210 6 -95 18 -202 30 -253 11 -49 24 -156 29
-241 5 -96 14 -166 24 -189 17 -42 36 -165 36 -237 0 -27 9 -73 21 -102 13
-32 24 -94 29 -163 6 -63 18 -135 30 -168 14 -40 24 -102 29 -190 6 -89 15
-147 27 -177 18 -42 19 -83 18 -635 0 -524 -2 -598 -17 -665 -14 -61 -20 -156
-27 -495 -9 -406 -20 -645 -40 -865 -6 -58 -14 -384 -19 -725 -9 -555 -21
-841 -38 -885 -11 -30 -20 -283 -11 -317 8 -29 13 -33 44 -33 29 0 38 6 55 35
12 19 25 35 29 35 5 0 14 17 21 37 14 42 82 109 137 133 20 9 43 24 51 33 7
10 24 17 36 17 13 0 46 5 73 12 78 17 103 3 189 -110 11 -15 26 -46 32 -69 6
-22 18 -46 25 -52 8 -7 19 -35 25 -63 6 -27 20 -61 31 -75 10 -13 22 -45 26
-71 4 -26 15 -58 25 -72 10 -14 23 -47 29 -75 6 -27 19 -63 30 -80 10 -16 21
-48 25 -70 4 -22 17 -55 28 -74 11 -18 24 -53 28 -78 5 -24 17 -56 28 -69 11
-14 23 -39 27 -57 9 -42 77 -112 91 -94 6 6 13 55 16 108 3 55 12 112 22 135
10 23 22 100 30 189 8 89 20 166 30 190 11 25 20 90 27 185 5 89 17 170 29
210 12 41 22 121 28 215 7 99 16 165 27 195 14 36 18 77 18 202 1 92 -3 161
-9 167 -5 5 -23 7 -38 4 -22 -4 -34 -16 -48 -47 -25 -54 -59 -99 -100 -133
-30 -26 -39 -28 -119 -28 -82 0 -87 2 -128 34 -69 56 -90 115 -102 293 -8 117
-15 159 -31 191 -13 24 -24 73 -29 121 -4 45 -17 101 -28 126 -11 25 -23 79
-27 120 -4 41 -16 92 -27 113 -10 21 -23 73 -28 115 -5 42 -18 97 -28 122 -12
26 -24 88 -30 150 -6 59 -18 119 -27 138 -12 23 -20 77 -26 177 -5 79 -16 174
-24 210 -20 85 -34 360 -35 670 -1 228 -5 298 -29 425 -6 30 -15 170 -21 310
-7 177 -17 287 -31 360 -13 70 -22 166 -25 290 -4 136 -12 217 -30 305 -13 67
-26 180 -29 255 -4 82 -14 166 -27 215 -12 49 -23 138 -28 230 -5 94 -15 180
-28 230 -14 55 -24 140 -31 270 -6 117 -16 209 -26 240 -10 32 -19 119 -25
240 -7 147 -14 205 -30 255 -15 45 -23 103 -27 195 -4 91 -11 147 -25 185 -13
36 -22 103 -28 194 -7 95 -16 159 -30 199 -15 41 -24 103 -29 196 -6 83 -15
153 -26 181 -10 27 -20 101 -26 185 -6 84 -18 166 -29 205 -13 41 -24 119 -29
210 -6 87 -16 163 -26 190 -10 26 -22 116 -30 215 -8 94 -21 193 -30 220 -10
30 -20 110 -24 198 -8 138 -10 150 -36 188 -34 48 -40 52 -52 36z"/>
<path d="M20820 20124 c-6 -14 -10 -29 -10 -33 0 -5 -11 -24 -24 -44 -15 -22
-27 -58 -31 -94 -4 -32 -17 -89 -30 -128 -14 -44 -24 -110 -28 -176 -4 -61
-15 -134 -27 -172 -11 -37 -24 -120 -30 -189 -5 -68 -18 -150 -28 -183 -11
-36 -22 -107 -26 -178 -4 -79 -13 -137 -26 -175 -14 -37 -24 -103 -30 -187 -6
-74 -18 -156 -29 -190 -12 -40 -21 -108 -26 -205 -5 -90 -15 -174 -27 -220
-12 -47 -23 -133 -28 -230 -5 -95 -16 -186 -28 -235 -16 -62 -23 -143 -32
-354 -6 -151 -16 -283 -21 -294 -6 -10 -17 -41 -25 -68 -12 -40 -21 -52 -53
-68 -33 -17 -37 -23 -33 -49 3 -22 14 -34 48 -50 24 -12 44 -26 44 -31 0 -4
20 -16 45 -25 25 -10 45 -22 45 -27 0 -5 19 -19 43 -30 66 -32 128 -67 146
-82 9 -8 32 -20 52 -26 20 -7 44 -20 54 -31 9 -10 30 -22 45 -25 16 -4 56 -35
94 -73 63 -64 83 -92 121 -172 9 -19 29 -59 43 -88 26 -52 27 -56 26 -255 l0
-202 -32 -59 c-18 -32 -32 -64 -32 -70 0 -13 -123 -140 -166 -172 -16 -12 -45
-26 -65 -33 -20 -6 -44 -20 -53 -30 -9 -10 -34 -21 -55 -25 -21 -3 -45 -14
-55 -25 -10 -10 -34 -22 -54 -26 -20 -4 -49 -15 -64 -26 -15 -11 -42 -25 -60
-31 -18 -6 -54 -29 -80 -51 -38 -31 -52 -38 -73 -33 -36 9 -44 38 -54 205 -7
108 -14 159 -30 198 -11 29 -24 85 -29 125 -6 43 -18 88 -31 108 -11 19 -21
45 -21 58 0 32 -73 108 -111 116 -17 3 -41 14 -55 25 -18 14 -49 21 -125 26
-56 4 -127 14 -158 22 -75 20 -443 29 -531 14 -208 -36 -218 -38 -255 -75 -51
-52 -49 -94 7 -135 39 -29 47 -31 127 -31 48 1 115 7 151 15 90 20 329 20 394
0 28 -8 82 -18 120 -21 49 -4 82 -13 106 -29 19 -13 46 -26 60 -30 42 -13 98
-77 109 -126 6 -24 19 -65 30 -89 13 -29 22 -80 26 -140 4 -52 16 -126 27
-165 15 -54 21 -120 28 -290 5 -122 16 -267 26 -325 15 -88 18 -172 18 -525 1
-368 -1 -426 -16 -470 -9 -27 -20 -70 -23 -95 -9 -59 -20 -77 -55 -95 -39 -20
-74 -19 -140 4 -82 28 -495 46 -730 31 -139 -9 -180 -15 -205 -30 -16 -10 -51
-24 -77 -30 -26 -7 -54 -21 -64 -31 -9 -10 -22 -19 -29 -19 -16 0 -134 -119
-152 -154 -9 -17 -24 -42 -33 -56 -25 -36 -54 -260 -47 -357 13 -168 34 -281
56 -309 11 -14 21 -32 21 -38 0 -22 68 -117 107 -150 21 -18 49 -37 63 -41 14
-4 45 -19 70 -33 45 -27 47 -27 240 -26 181 1 199 2 245 24 27 12 80 26 117
31 37 5 79 16 92 24 14 9 53 23 88 31 34 8 70 21 78 29 9 8 43 20 76 26 32 6
73 19 89 29 29 18 70 24 128 21 47 -2 67 -49 67 -158 0 -112 4 -115 117 -111
l77 3 8 35 c12 56 24 1446 16 1880 -14 819 -14 975 1 994 12 14 16 15 30 2 33
-29 194 -74 297 -81 58 -5 119 -16 149 -27 32 -13 92 -23 166 -28 76 -5 133
-15 165 -28 29 -11 95 -24 159 -30 65 -6 123 -17 143 -27 19 -10 76 -21 138
-26 61 -5 119 -16 137 -26 17 -9 80 -22 139 -29 59 -7 118 -20 130 -28 13 -8
64 -20 113 -26 51 -7 103 -20 121 -31 17 -10 57 -21 90 -25 33 -4 77 -17 101
-30 23 -13 57 -24 75 -24 18 0 60 -14 93 -30 33 -16 73 -30 88 -30 16 0 47
-11 70 -24 23 -13 58 -27 77 -31 19 -4 49 -18 66 -31 17 -13 42 -24 57 -24 14
0 38 -11 54 -23 15 -13 42 -29 60 -35 17 -6 40 -19 51 -29 11 -10 43 -31 72
-48 51 -29 115 -76 155 -112 10 -10 34 -27 51 -38 62 -39 90 -60 154 -114 205
-176 349 -340 409 -467 11 -23 24 -45 30 -48 6 -4 18 -31 26 -60 9 -29 24 -70
35 -91 12 -23 20 -59 20 -86 0 -26 11 -75 24 -110 15 -39 27 -99 31 -154 4
-53 15 -109 27 -135 12 -29 23 -86 29 -158 5 -62 16 -128 24 -148 21 -50 19
-112 -5 -159 -11 -22 -20 -47 -20 -57 0 -10 -11 -40 -24 -66 -13 -26 -28 -72
-31 -102 -4 -30 -16 -72 -26 -92 -33 -65 -23 -71 110 -63 77 5 126 13 145 24
16 9 41 23 56 31 41 23 129 136 158 203 6 15 16 27 21 27 6 0 17 23 26 52 8
28 22 59 30 68 8 9 21 49 30 88 8 40 23 87 32 105 15 27 18 59 18 212 0 162
-2 185 -22 230 -11 28 -24 76 -28 107 -5 36 -16 69 -31 89 -13 18 -24 42 -24
54 0 11 -11 37 -25 57 -14 21 -30 48 -35 60 -6 13 -22 39 -35 58 -13 19 -35
50 -47 68 -115 169 -467 510 -593 575 -17 8 -39 24 -49 36 -11 12 -24 21 -30
21 -12 0 -82 44 -128 80 -15 11 -42 26 -60 32 -18 6 -42 19 -53 28 -11 9 -36
22 -55 29 -19 6 -43 20 -55 30 -11 9 -39 23 -62 30 -24 6 -43 15 -43 20 0 10
-46 31 -70 31 -10 0 -31 11 -47 24 -15 13 -44 26 -64 30 -21 4 -48 15 -60 25
-13 10 -40 22 -59 26 -19 4 -59 21 -89 36 -30 16 -62 29 -71 29 -10 0 -28 8
-41 18 -13 11 -46 24 -73 31 -27 7 -60 20 -73 31 -13 10 -43 22 -66 25 -23 4
-54 16 -68 26 -14 10 -48 23 -75 29 -26 6 -62 20 -80 30 -17 11 -60 24 -96 29
-36 5 -77 17 -91 26 -16 10 -65 20 -127 26 -56 6 -127 20 -158 30 -38 14 -103
23 -197 29 -85 5 -158 15 -185 25 -25 9 -92 20 -149 25 -76 6 -110 13 -130 27
-14 10 -41 25 -59 32 -18 8 -37 21 -41 30 -29 54 -18 205 17 245 10 12 25 37
35 56 9 19 21 42 27 50 5 8 16 31 25 50 8 19 22 46 29 60 14 25 61 122 91 190
46 103 90 152 151 169 58 16 142 -4 186 -44 20 -19 42 -43 48 -55 15 -28 39
-25 46 8 3 15 15 56 26 92 11 36 24 117 29 180 10 131 15 158 36 200 8 16 18
78 23 137 5 66 15 128 27 158 11 28 23 89 27 137 3 50 15 110 27 140 12 32 24
93 29 160 6 66 15 119 26 140 11 21 22 82 30 168 7 74 20 152 28 172 21 50 31
140 18 165 -10 18 -16 19 -69 11 -32 -5 -83 -16 -114 -25 -55 -15 -56 -15
-113 12 -45 21 -61 35 -73 64 -8 20 -26 59 -39 86 -13 28 -27 68 -30 90 -4 22
-18 60 -31 84 -12 24 -23 58 -23 75 -1 17 -14 56 -30 86 -17 30 -30 69 -30 87
0 18 -11 53 -25 79 -14 26 -25 61 -25 79 0 18 -11 53 -25 80 -14 26 -28 68
-32 94 -3 25 -15 64 -28 86 -12 22 -25 64 -28 93 -4 29 -16 69 -27 87 -11 18
-24 58 -27 87 -3 29 -16 73 -29 98 -13 25 -26 70 -30 100 -3 30 -15 70 -26 87
-11 18 -24 63 -29 100 -5 37 -17 78 -25 91 -9 14 -22 60 -30 103 -7 44 -21 90
-30 103 -8 14 -20 57 -25 96 -6 39 -19 85 -29 103 -10 18 -22 57 -25 87 -4 30
-17 78 -30 105 -12 28 -25 74 -29 104 -4 30 -16 70 -26 90 -11 20 -25 56 -32
80 -10 34 -20 46 -46 57 -31 13 -33 12 -42 -12z m169 -1171 c73 -75 92 -114
101 -205 4 -45 15 -101 25 -123 9 -21 21 -86 27 -143 5 -58 18 -127 29 -154
10 -27 23 -95 28 -151 6 -56 18 -127 29 -157 11 -30 23 -97 27 -149 4 -55 15
-116 27 -145 11 -30 23 -93 28 -158 5 -64 15 -120 25 -139 10 -18 23 -84 30
-153 7 -67 21 -138 30 -160 9 -21 20 -84 24 -140 5 -56 16 -119 26 -141 10
-22 23 -95 31 -162 7 -71 20 -135 30 -155 11 -21 20 -72 24 -143 6 -73 15
-128 29 -163 26 -64 27 -119 4 -152 -10 -13 -27 -42 -38 -64 -29 -58 -61 -65
-116 -27 -50 34 -138 118 -219 210 -30 34 -66 75 -80 90 -143 159 -176 194
-203 208 -18 9 -42 26 -54 39 -12 13 -31 24 -42 24 -11 0 -32 11 -48 24 -15
13 -42 27 -60 30 -17 4 -37 14 -44 22 -7 9 -25 22 -40 29 -15 8 -41 39 -58 70
-27 47 -31 64 -31 128 0 42 9 107 20 151 14 53 24 135 30 254 6 118 15 192 25
222 11 29 20 103 26 209 6 103 17 197 30 250 13 53 24 147 30 246 5 98 16 191
29 240 11 44 20 105 20 135 1 169 40 306 105 365 60 54 87 75 97 75 6 0 27
-17 47 -37z m-1415 -5887 c25 -11 76 -20 135 -23 69 -4 112 -12 153 -29 32
-13 64 -24 72 -24 35 0 71 -28 109 -85 l41 -60 1 -140 0 -140 -30 -40 c-40
-53 -74 -83 -111 -100 -17 -8 -36 -21 -43 -29 -8 -9 -32 -21 -55 -27 -22 -5
-54 -19 -69 -30 -15 -11 -50 -24 -78 -28 -27 -5 -57 -16 -68 -25 -10 -9 -45
-21 -77 -27 -32 -6 -90 -20 -129 -32 -100 -31 -284 -32 -335 -1 -19 12 -53 24
-74 27 -21 4 -48 15 -60 25 -12 11 -34 26 -51 35 -42 21 -88 81 -120 157 -41
99 -47 136 -43 255 4 94 8 116 29 149 57 92 141 153 239 171 36 7 83 20 105
29 59 24 402 17 459 -8z"/>
<path d="M30667 18543 c-3 -5 -10 -51 -16 -103 -6 -52 -18 -117 -27 -145 -9
-30 -19 -118 -24 -216 -6 -106 -15 -182 -25 -210 -9 -26 -20 -105 -25 -189
-12 -193 -19 -245 -37 -294 -8 -22 -17 -92 -20 -153 -7 -131 -1 -139 70 -104
56 27 62 27 107 -9 33 -26 39 -38 45 -83 4 -28 16 -72 26 -97 11 -26 23 -89
28 -151 5 -64 16 -119 26 -139 10 -20 21 -76 27 -142 5 -66 17 -130 29 -161
11 -28 24 -94 29 -146 5 -59 16 -114 29 -142 12 -27 23 -79 27 -130 4 -51 14
-99 26 -123 12 -23 23 -75 28 -130 5 -51 18 -111 29 -136 11 -25 23 -81 27
-125 4 -44 16 -102 26 -130 11 -27 24 -91 29 -142 5 -50 18 -112 29 -136 12
-27 23 -84 28 -143 5 -60 16 -112 26 -133 11 -20 22 -75 27 -134 6 -61 18
-119 30 -146 13 -29 23 -78 26 -134 6 -87 6 -88 44 -118 37 -29 38 -29 48 -10
6 11 11 28 11 39 0 10 11 40 25 66 14 26 28 73 31 104 3 31 16 80 29 107 12
28 26 72 30 100 4 27 18 68 31 91 13 22 24 55 24 72 0 18 9 49 20 69 30 57 23
103 -8 53 -10 -17 -23 -20 -87 -20 l-74 0 -36 52 c-31 47 -35 60 -35 118 -1
117 -17 256 -35 289 -10 19 -20 75 -25 139 -5 64 -17 128 -28 157 -11 28 -23
91 -27 140 -4 50 -16 113 -27 140 -12 30 -23 90 -28 151 -4 58 -14 115 -24
135 -19 40 -36 133 -36 197 0 23 -9 68 -21 100 -13 36 -24 98 -29 172 -5 77
-15 132 -29 168 -13 32 -25 94 -30 156 -5 60 -16 116 -26 135 -9 18 -21 76
-27 129 -6 54 -19 117 -30 141 -12 27 -23 82 -29 142 -4 56 -15 112 -25 130
-10 20 -21 85 -30 173 -7 78 -20 164 -29 191 -9 28 -20 113 -25 191 -5 88 -15
156 -25 182 -10 23 -22 65 -29 94 -10 48 -27 70 -39 51z"/>
<path d="M29336 18434 c-9 -23 -7 -117 3 -132 12 -19 21 19 21 91 0 55 -11 74
-24 41z"/>
<path d="M34517 18180 c-26 -11 -86 -24 -134 -30 -54 -6 -92 -15 -104 -26 -10
-9 -39 -20 -64 -25 -26 -5 -59 -15 -73 -23 -15 -9 -40 -22 -57 -30 -16 -8 -45
-30 -64 -50 l-34 -35 40 -39 40 -40 240 0 c250 -1 275 -3 333 -32 19 -10 59
-20 89 -24 30 -4 73 -18 96 -32 23 -13 53 -24 66 -24 14 0 40 -11 59 -25 19
-14 41 -25 51 -25 9 0 32 -11 52 -24 19 -13 44 -27 55 -30 11 -4 36 -19 55
-34 20 -15 64 -47 98 -72 84 -61 200 -176 347 -347 68 -78 135 -155 150 -171
55 -59 72 -84 72 -108 0 -15 16 -42 41 -69 34 -37 48 -45 77 -45 31 0 44 10
116 86 68 72 221 210 316 285 14 11 39 31 57 45 17 13 47 31 67 39 20 9 36 19
36 24 0 5 17 16 38 26 20 9 64 32 97 50 33 19 76 41 95 50 19 9 62 29 94 45
32 17 64 30 71 30 7 0 24 9 37 20 14 10 44 23 66 28 22 5 54 19 70 31 17 11
41 21 55 21 13 0 46 12 73 26 31 17 75 29 121 35 39 4 87 16 105 26 29 16 61
18 298 18 218 0 278 -3 337 -17 75 -19 238 -24 247 -9 3 5 -7 14 -23 21 -16 6
-32 18 -35 25 -6 16 -103 80 -136 90 -14 4 -34 16 -45 26 -11 10 -50 25 -86
32 -35 7 -78 22 -94 33 -27 18 -50 19 -300 19 -259 0 -272 -1 -311 -22 -25
-13 -70 -25 -110 -29 -46 -4 -81 -14 -104 -29 -19 -12 -52 -25 -74 -28 -21 -4
-55 -17 -75 -31 -20 -14 -48 -28 -63 -31 -14 -4 -34 -15 -44 -26 -9 -10 -23
-19 -30 -19 -6 0 -30 -15 -53 -32 -22 -18 -60 -48 -86 -67 -25 -18 -62 -49
-83 -68 -41 -39 -67 -57 -286 -202 -36 -24 -47 -26 -142 -25 -98 1 -104 2
-156 35 -64 40 -124 104 -133 142 -4 15 -13 31 -20 35 -6 4 -20 20 -31 37 -10
16 -25 36 -32 45 -7 8 -33 42 -57 75 -24 33 -74 91 -112 128 -92 91 -103 101
-140 123 -18 10 -33 22 -33 25 0 4 -9 10 -19 14 -11 3 -36 19 -56 35 -21 17
-45 30 -54 30 -9 0 -29 11 -44 24 -15 13 -44 27 -65 31 -20 4 -52 16 -70 27
-17 11 -64 24 -104 30 -40 5 -86 17 -103 26 -24 14 -63 17 -200 19 -150 2
-176 0 -218 -17z"/>
<path d="M29274 18145 c-11 -78 16 -134 30 -60 8 39 -2 105 -15 105 -4 0 -11
-20 -15 -45z"/>
<path d="M29221 17940 c-17 -51 -11 -160 10 -160 20 0 30 142 12 174 -9 16
-11 15 -22 -14z"/>
<path d="M29166 17718 c-14 -54 -19 -175 -6 -183 21 -13 32 12 38 83 5 73 -2
122 -17 122 -5 0 -11 -10 -15 -22z"/>
<path d="M33991 16269 c-74 -20 -98 -35 -176 -113 -20 -20 -36 -49 -44 -81 -7
-27 -21 -64 -32 -81 -15 -25 -19 -51 -19 -130 -1 -180 -16 -348 -32 -374 -9
-14 -19 -39 -23 -57 -4 -22 -32 -58 -86 -112 -43 -45 -79 -85 -79 -89 0 -5
-13 -28 -29 -53 -16 -24 -32 -60 -36 -79 -4 -19 -15 -48 -25 -65 -10 -16 -23
-63 -28 -102 -6 -44 -18 -84 -31 -102 -12 -16 -21 -34 -21 -39 0 -15 -68 -78
-120 -111 -25 -16 -65 -32 -90 -36 -25 -4 -56 -16 -69 -26 -12 -10 -39 -21
-59 -25 -19 -4 -60 -20 -90 -35 -30 -16 -62 -29 -71 -29 -9 0 -32 -11 -50 -24
-18 -13 -47 -27 -65 -30 -18 -4 -41 -15 -51 -26 -10 -11 -34 -25 -54 -31 -20
-6 -44 -20 -54 -30 -10 -11 -22 -19 -27 -19 -6 0 -19 -9 -30 -20 -19 -19 -116
-89 -200 -144 -19 -13 -41 -31 -49 -40 -17 -20 -125 -23 -140 -3 -63 76 -64
77 -72 165 -4 49 -17 107 -28 133 -13 29 -23 80 -27 135 -4 54 -14 107 -26
134 -12 28 -23 87 -29 154 -6 68 -17 125 -29 152 -13 27 -22 76 -26 140 -4 63
-15 125 -30 171 -13 39 -24 82 -24 96 0 57 -12 87 -34 87 -47 0 -75 -51 -76
-135 0 -17 -9 -49 -20 -70 -12 -22 -25 -75 -31 -119 -5 -43 -19 -95 -29 -116
-27 -53 -36 -132 -17 -148 11 -9 22 -10 41 -2 20 7 34 6 55 -4 41 -22 49 -36
65 -117 8 -41 19 -87 26 -104 6 -16 16 -97 22 -179 7 -107 16 -165 30 -201 23
-58 42 -282 32 -382 -7 -69 -10 -74 -186 -255 -95 -98 -313 -331 -381 -409
-26 -30 -72 -81 -102 -114 -30 -33 -55 -63 -55 -66 0 -8 -115 -161 -141 -187
-16 -16 -24 -37 -27 -77 l-4 -55 64 -65 c86 -87 101 -86 169 8 19 27 46 63 62
82 15 18 27 37 27 42 0 22 155 189 485 519 192 192 382 373 420 401 39 28 81
61 95 72 59 50 110 88 149 111 24 14 56 36 72 49 31 24 84 55 155 89 23 11 45
25 48 30 3 6 23 16 44 23 20 6 48 20 61 30 13 11 42 24 64 30 22 6 52 19 66
30 14 10 48 23 74 28 26 5 56 16 65 24 10 9 42 21 72 28 30 6 69 20 86 30 17
10 57 21 90 25 32 4 77 16 99 27 29 15 71 22 155 27 63 5 144 16 180 26 89 24
355 24 455 1 39 -10 122 -21 186 -26 80 -6 124 -14 142 -26 15 -9 57 -21 95
-25 40 -5 89 -20 117 -35 26 -14 62 -25 80 -25 18 0 49 -11 69 -25 20 -14 47
-25 60 -25 13 0 48 -13 79 -30 31 -16 67 -30 80 -30 13 0 38 -11 57 -25 19
-14 43 -25 54 -25 12 0 32 -7 46 -15 14 -8 50 -26 80 -41 30 -14 57 -30 60
-35 3 -4 22 -15 42 -23 20 -9 40 -20 43 -26 4 -6 23 -22 43 -35 102 -67 180
-122 199 -139 11 -10 33 -29 47 -42 15 -13 36 -29 47 -35 27 -14 100 -69 159
-119 73 -62 103 -85 145 -113 22 -14 59 -42 81 -63 23 -22 68 -61 100 -89 143
-120 430 -429 549 -590 16 -22 49 -59 73 -82 l44 -41 31 18 c44 26 101 89 116
126 10 24 10 42 1 73 -11 40 -27 61 -129 171 -39 42 -86 92 -241 260 -14 14
-61 66 -105 114 -44 49 -128 131 -187 183 -60 52 -132 118 -162 146 -75 72
-154 140 -255 221 -86 68 -94 75 -142 118 -14 13 -54 42 -90 65 -35 23 -73 49
-84 58 -20 16 -74 49 -130 81 -16 9 -39 24 -50 33 -11 10 -39 23 -63 30 -24 7
-46 19 -49 26 -3 8 -24 20 -46 26 -23 6 -54 22 -70 35 -16 13 -39 24 -51 24
-12 0 -33 11 -45 24 -13 14 -40 28 -61 31 -21 4 -46 15 -55 26 -10 10 -33 21
-51 25 -18 3 -41 15 -51 26 -10 11 -34 28 -54 39 -55 28 -115 105 -123 159 -4
25 -16 70 -26 100 -10 30 -21 81 -25 113 -4 31 -15 67 -25 80 -9 12 -24 36
-33 53 -20 39 -141 162 -210 213 -30 22 -69 59 -88 82 l-34 43 -3 284 -3 283
-35 46 c-36 47 -99 103 -116 103 -6 0 -22 9 -37 19 -15 11 -54 26 -87 34 -32
8 -66 17 -74 20 -8 3 -48 -3 -89 -14z m184 -261 c41 -42 42 -46 48 -123 8
-100 2 -308 -10 -329 -4 -8 -25 -26 -46 -40 -31 -21 -50 -26 -103 -26 -78 0
-116 17 -135 62 -15 35 -15 56 -4 273 l8 140 42 43 c40 40 46 42 100 42 55 0
60 -2 100 -42z m-12 -748 c37 -6 78 -17 91 -25 12 -8 51 -18 87 -21 110 -11
221 -89 265 -186 8 -18 21 -42 29 -54 14 -19 13 -24 -15 -62 l-29 -41 -453 6
-453 6 -42 35 c-53 42 -54 62 -12 151 60 128 139 180 284 191 139 10 175 10
248 0z"/>
<path d="M17410 15986 c-85 -14 -135 -43 -212 -124 -55 -57 -112 -159 -121
-216 -3 -21 -13 -46 -22 -56 -9 -10 -22 -56 -30 -106 -7 -49 -21 -104 -31
-123 -11 -23 -20 -74 -25 -155 -4 -66 -13 -143 -19 -171 -29 -137 -31 -187
-27 -552 3 -325 6 -385 21 -428 9 -28 20 -96 23 -155 4 -73 11 -119 25 -150
11 -25 26 -76 34 -113 7 -37 22 -79 33 -93 11 -14 23 -39 27 -57 7 -32 83
-117 104 -117 6 0 26 -11 43 -24 18 -13 45 -26 61 -30 16 -4 40 -16 53 -26 13
-10 43 -22 66 -25 23 -4 54 -16 69 -26 15 -11 53 -24 85 -30 32 -6 72 -19 88
-29 17 -11 51 -22 75 -26 25 -3 61 -17 80 -29 19 -13 45 -26 56 -29 25 -8 98
-86 132 -141 12 -20 27 -57 32 -82 6 -24 18 -56 28 -71 14 -21 17 -49 17 -147
0 -105 -3 -124 -21 -155 -12 -19 -25 -52 -28 -73 -4 -20 -15 -45 -25 -55 -10
-9 -22 -24 -27 -33 -5 -9 -31 -35 -59 -58 -27 -23 -57 -47 -65 -55 -22 -20
-187 -59 -224 -53 -117 19 -192 38 -215 54 -14 11 -41 25 -59 31 -39 13 -162
113 -215 175 -23 26 -50 47 -67 50 -93 19 -181 -75 -150 -159 12 -32 79 -97
123 -120 15 -8 27 -19 27 -24 0 -5 18 -19 40 -30 22 -11 40 -24 40 -29 0 -5
17 -15 38 -22 20 -6 50 -22 65 -35 16 -13 39 -24 51 -24 12 0 37 -11 55 -24
19 -14 54 -27 84 -31 29 -4 77 -17 107 -28 83 -32 183 -28 287 11 46 16 97 41
114 54 59 45 160 153 175 188 8 19 23 42 34 52 10 10 23 34 29 53 5 19 19 47
30 61 12 15 21 39 21 55 0 16 12 63 26 106 22 68 25 89 20 163 -3 47 -14 110
-25 140 -11 30 -20 69 -21 87 0 62 -107 236 -183 298 -78 64 -100 78 -140 87
-23 5 -54 17 -68 28 -15 10 -51 22 -80 26 -30 3 -74 16 -99 29 -25 12 -70 26
-100 30 -30 4 -73 18 -96 31 -22 13 -52 24 -66 24 -14 0 -38 10 -54 22 -15 13
-41 30 -58 38 -43 24 -104 116 -115 175 -5 28 -18 66 -27 85 -13 25 -20 72
-25 175 -4 77 -12 204 -19 283 -9 110 -9 176 0 280 6 75 15 229 20 342 6 161
12 217 28 260 10 30 22 95 26 143 4 63 13 104 31 141 14 29 25 64 25 77 0 50
103 165 201 224 18 11 42 26 54 32 12 8 56 13 110 13 90 0 97 -2 166 -47 48
-32 137 -122 145 -147 3 -12 15 -30 25 -42 18 -20 43 -98 74 -234 8 -36 23
-71 32 -77 9 -7 41 -13 71 -13 48 0 58 4 89 35 l35 35 -3 113 c-3 95 -7 117
-25 142 -12 17 -25 45 -29 63 -4 18 -17 45 -29 60 -13 15 -30 41 -39 57 -18
37 -116 134 -154 153 -15 8 -41 26 -56 38 -16 13 -37 24 -46 24 -10 0 -31 10
-46 22 -20 15 -54 25 -124 34 -116 16 -181 16 -281 0z"/>
<path d="M13940 15841 c-25 -10 -68 -22 -97 -26 -29 -4 -65 -17 -84 -31 -18
-13 -38 -24 -44 -24 -47 0 -305 -228 -305 -270 0 -10 -11 -32 -25 -48 -14 -17
-28 -45 -32 -63 -3 -18 -16 -47 -28 -65 -12 -18 -25 -53 -28 -78 -4 -26 -16
-59 -26 -74 -12 -16 -24 -56 -29 -98 -6 -39 -19 -88 -30 -110 -12 -24 -21 -70
-25 -121 -4 -45 -16 -110 -28 -145 -16 -47 -23 -104 -30 -228 -5 -91 -16 -221
-25 -290 -18 -136 -15 -382 6 -540 6 -46 15 -168 20 -270 7 -143 13 -200 30
-250 11 -36 24 -101 27 -145 3 -46 14 -99 25 -125 11 -25 24 -75 28 -111 5
-37 20 -88 35 -114 14 -26 25 -59 25 -73 0 -14 11 -44 24 -66 13 -23 26 -54
30 -71 4 -16 14 -37 21 -45 8 -9 21 -31 30 -50 23 -51 84 -124 132 -159 22
-16 44 -34 48 -40 3 -6 16 -11 29 -11 13 0 45 -12 72 -26 70 -38 232 -51 437
-36 131 9 159 14 201 36 27 14 61 26 76 26 14 0 41 11 59 24 19 14 47 28 63
31 32 7 48 36 48 86 0 22 -11 41 -42 71 -54 52 -108 62 -165 28 -20 -12 -64
-26 -97 -31 -33 -6 -76 -20 -96 -32 -32 -20 -48 -22 -200 -22 l-165 0 -55 35
c-79 51 -159 144 -183 215 -6 16 -20 44 -32 61 -12 18 -25 52 -29 75 -4 23
-15 52 -25 65 -11 14 -22 50 -26 87 -4 34 -16 79 -27 100 -11 23 -23 76 -28
126 -5 48 -18 107 -29 132 -13 31 -21 78 -26 159 -3 63 -16 160 -28 215 -21
94 -22 125 -22 500 1 284 4 414 13 450 16 64 29 146 41 261 5 51 17 106 25
122 9 17 20 61 25 97 5 37 17 77 25 91 9 13 23 48 31 79 8 31 23 67 35 82 11
14 20 33 20 43 0 9 14 34 30 55 17 21 30 43 30 49 0 18 158 184 183 192 12 4
36 18 52 32 l30 25 255 -5 c168 -3 272 -1 305 6 48 11 50 13 59 53 12 56 1 91
-30 104 -15 5 -37 18 -50 28 -13 10 -45 22 -71 26 -27 3 -77 15 -112 26 -81
24 -190 24 -251 0z"/>
<path d="M15410 15850 c-157 -26 -205 -41 -237 -72 -25 -25 -33 -40 -33 -68 0
-31 7 -42 39 -68 37 -30 46 -32 114 -32 41 0 112 7 158 16 126 24 324 21 423
-5 44 -12 101 -21 127 -21 36 0 55 -6 77 -25 17 -14 37 -25 46 -25 9 0 39 -21
66 -46 38 -35 50 -54 55 -87 4 -23 17 -67 30 -97 16 -39 24 -85 28 -161 4 -63
15 -130 27 -170 18 -52 22 -98 26 -254 3 -104 14 -262 24 -350 24 -201 36
-646 22 -805 -6 -63 -18 -142 -26 -175 -9 -32 -16 -75 -16 -95 -1 -38 -12 -57
-50 -83 -32 -22 -76 -22 -147 2 -85 28 -496 46 -731 32 -146 -9 -178 -14 -202
-31 -15 -10 -49 -24 -75 -30 -26 -6 -61 -21 -77 -33 -48 -36 -168 -153 -168
-164 0 -6 -10 -23 -22 -38 -31 -40 -61 -196 -62 -325 -1 -132 33 -338 63 -375
11 -14 22 -39 26 -54 8 -39 125 -157 164 -166 16 -3 42 -16 56 -27 56 -44 414
-50 496 -7 21 10 71 24 110 29 40 6 86 19 103 29 17 10 51 22 76 26 25 4 63
18 85 30 22 12 60 26 85 29 24 4 58 15 75 25 42 25 91 33 136 21 50 -14 70
-64 66 -172 -1 -42 2 -80 6 -85 5 -4 46 -10 91 -11 62 -3 85 0 94 11 27 32 35
1649 13 2552 -7 277 -12 358 -29 440 -11 55 -23 159 -27 230 -5 90 -13 145
-26 178 -10 26 -23 83 -28 127 -6 51 -16 88 -29 107 -11 15 -23 44 -27 63 -11
51 -63 108 -110 121 -22 6 -48 18 -57 26 -11 10 -61 20 -145 29 -70 7 -159 20
-198 29 -75 16 -399 19 -485 5z m483 -2783 c22 -9 87 -21 151 -26 82 -6 122
-14 151 -30 22 -11 47 -21 56 -21 50 0 80 -23 120 -92 l41 -70 0 -127 1 -127
-32 -45 c-48 -66 -109 -113 -201 -154 -19 -8 -56 -26 -81 -40 -26 -14 -59 -25
-75 -25 -15 0 -46 -11 -70 -25 -24 -14 -66 -27 -100 -31 -33 -4 -81 -16 -109
-27 -40 -16 -74 -20 -170 -21 -106 -1 -125 2 -162 22 -23 12 -50 22 -60 22
-10 0 -28 6 -39 13 -12 6 -42 23 -67 37 -45 25 -117 101 -117 124 0 7 -12 35
-27 62 -26 46 -27 58 -30 194 -3 105 0 151 9 166 7 12 23 40 36 63 31 56 138
126 208 135 28 3 75 15 105 26 48 18 73 20 239 17 146 -2 193 -7 223 -20z"/>
<path d="M31702 14210 c-26 -31 -35 -53 -39 -93 -5 -50 -3 -53 34 -90 34 -32
42 -36 52 -24 14 18 11 239 -4 243 -5 2 -25 -14 -43 -36z"/>
<path d="M27300 13997 c-22 -23 -40 -46 -40 -50 0 -5 -9 -22 -21 -38 -11 -16
-25 -46 -31 -66 -5 -20 -20 -52 -33 -72 -13 -20 -26 -52 -29 -72 -4 -21 -13
-42 -21 -49 -8 -6 -21 -35 -29 -65 -9 -29 -22 -58 -30 -64 -8 -7 -18 -27 -22
-44 -3 -18 -20 -56 -35 -86 -16 -30 -29 -59 -29 -65 0 -7 -11 -27 -24 -45 -13
-18 -27 -49 -31 -69 -4 -20 -15 -45 -26 -55 -10 -9 -23 -35 -29 -56 -5 -21
-17 -44 -25 -51 -8 -7 -19 -29 -25 -50 -5 -20 -19 -47 -30 -60 -11 -13 -25
-40 -30 -60 -6 -21 -17 -43 -25 -50 -7 -6 -21 -34 -30 -61 -9 -27 -20 -49 -24
-49 -5 0 -18 -21 -30 -47 -12 -27 -28 -59 -36 -73 -16 -28 -33 -61 -69 -137
-14 -28 -29 -54 -35 -57 -5 -4 -15 -23 -22 -44 -6 -20 -19 -46 -29 -57 -10
-11 -23 -36 -29 -56 -7 -20 -20 -44 -30 -53 -11 -10 -22 -32 -25 -50 -4 -18
-17 -43 -31 -56 -14 -13 -25 -33 -25 -45 0 -12 -13 -39 -30 -60 -16 -21 -30
-46 -30 -55 0 -10 -9 -29 -20 -43 -11 -14 -27 -44 -35 -66 -7 -22 -23 -49 -34
-60 -12 -12 -21 -29 -21 -40 0 -10 -11 -35 -25 -55 -14 -21 -32 -52 -40 -69
-8 -18 -19 -39 -25 -47 -10 -16 -35 -65 -70 -139 -11 -23 -29 -54 -40 -68 -11
-14 -20 -34 -20 -44 0 -9 -11 -31 -25 -47 -20 -24 -28 -49 -36 -114 -12 -95
-51 -185 -90 -206 -31 -17 -102 -8 -143 17 -17 11 -53 23 -81 27 -27 4 -69 18
-94 30 -24 13 -58 24 -76 24 -18 0 -53 11 -79 25 -26 14 -66 28 -89 31 -23 4
-62 17 -87 30 -25 12 -64 25 -87 29 -22 4 -49 15 -58 25 -10 11 -38 22 -64 26
-25 3 -64 16 -86 29 -22 12 -60 25 -85 29 -25 4 -61 16 -80 27 -19 12 -62 25
-96 30 -34 5 -77 17 -96 28 -18 10 -60 22 -93 26 -33 4 -85 17 -115 30 -32 14
-84 26 -125 28 -39 3 -93 14 -121 25 -29 12 -90 23 -145 27 -52 5 -126 18
-167 31 -50 17 -96 24 -150 24 -42 0 -140 7 -217 15 -228 24 -356 17 -363 -19
-5 -23 10 -32 64 -41 23 -3 54 -15 68 -26 14 -11 48 -24 74 -28 27 -4 65 -17
83 -29 19 -12 55 -24 79 -28 25 -3 57 -15 73 -25 15 -11 53 -24 85 -30 31 -6
71 -19 88 -30 17 -10 61 -23 98 -28 36 -5 81 -18 99 -29 17 -11 59 -22 91 -26
33 -4 73 -15 90 -25 17 -10 59 -24 94 -29 35 -6 78 -20 95 -31 18 -10 55 -22
82 -26 28 -4 71 -18 97 -31 26 -13 63 -24 81 -24 19 0 55 -11 81 -25 26 -14
73 -28 104 -31 31 -4 72 -15 91 -26 18 -10 67 -23 108 -28 42 -6 89 -18 107
-29 17 -11 55 -23 84 -27 29 -4 68 -17 86 -29 17 -12 47 -25 66 -29 19 -3 43
-15 55 -25 11 -11 38 -24 61 -30 22 -6 49 -19 58 -30 10 -10 32 -22 50 -25 18
-4 41 -15 51 -26 10 -11 35 -23 56 -26 21 -4 53 -17 71 -30 17 -13 39 -24 49
-24 9 0 40 -13 70 -29 30 -15 68 -31 85 -35 18 -4 40 -16 50 -27 9 -10 34 -22
55 -25 21 -4 46 -15 55 -25 10 -11 36 -24 58 -30 23 -6 50 -19 61 -29 11 -9
37 -23 57 -29 20 -7 42 -19 50 -28 7 -9 31 -24 53 -35 63 -29 117 -65 127 -82
5 -9 15 -16 22 -16 15 0 161 -119 194 -158 47 -55 112 -142 112 -150 0 -4 20
-29 43 -56 l44 -48 125 4 c144 4 174 15 138 53 -11 12 -20 26 -20 32 0 5 -10
18 -21 29 -20 18 -31 32 -95 128 -36 54 -320 337 -373 372 -24 16 -58 38 -75
49 -18 11 -45 30 -60 43 -16 12 -34 22 -41 22 -19 0 -133 89 -185 145 -93 99
-102 125 -98 285 3 115 7 141 25 176 12 23 25 65 29 95 3 30 15 68 25 85 11
18 24 58 30 90 6 32 19 69 29 82 11 13 22 44 26 68 3 25 16 60 29 78 12 18 25
49 29 68 3 20 15 45 25 57 10 12 24 41 30 65 6 24 17 49 26 56 8 7 20 31 26
54 6 22 19 50 29 61 10 11 21 34 25 52 3 18 15 43 26 57 11 14 26 44 34 67 9
24 22 50 29 59 7 8 19 32 25 52 7 20 19 42 26 48 8 7 20 31 27 54 7 22 23 56
35 75 13 19 23 41 23 50 0 9 14 36 30 60 17 24 30 51 30 61 0 9 11 31 25 50
14 19 25 41 25 51 0 9 11 32 24 51 13 20 29 51 35 71 7 19 18 41 26 47 8 6 19
28 26 48 6 20 17 44 24 52 7 8 37 64 66 123 108 218 127 242 208 257 29 5 56
12 61 15 5 3 32 0 61 -6 71 -15 134 -76 149 -143 6 -26 19 -64 29 -84 10 -21
23 -67 29 -104 6 -36 18 -78 27 -91 9 -14 21 -56 26 -94 5 -37 18 -85 29 -105
11 -21 22 -68 26 -105 3 -37 15 -86 26 -108 12 -22 24 -74 29 -116 4 -42 17
-97 29 -123 12 -27 24 -83 29 -134 5 -48 18 -107 29 -132 11 -25 23 -80 26
-122 4 -42 16 -98 27 -123 12 -28 24 -86 30 -142 5 -57 15 -106 25 -120 8 -14
20 -66 26 -116 6 -51 19 -114 30 -141 11 -27 24 -88 28 -135 5 -47 17 -106 29
-131 11 -25 23 -80 26 -125 4 -45 16 -98 26 -121 11 -23 24 -81 30 -130 6 -55
17 -99 29 -120 11 -17 23 -53 26 -80 4 -27 16 -64 27 -82 11 -19 25 -59 31
-90 6 -30 16 -57 21 -59 16 -5 75 54 275 277 41 46 84 94 95 105 126 133 205
242 205 285 0 21 -36 110 -65 160 -8 14 -23 41 -33 60 -10 19 -28 51 -40 70
-12 19 -22 41 -22 49 0 8 -11 29 -24 46 -14 18 -28 45 -32 61 -3 16 -17 45
-29 64 -13 19 -26 51 -30 70 -4 19 -16 46 -27 60 -10 14 -21 44 -25 65 -3 22
-17 53 -30 68 -12 16 -23 41 -23 55 0 15 -14 50 -30 77 -16 28 -30 61 -30 75
0 14 -11 41 -24 60 -12 19 -26 53 -30 75 -4 22 -18 58 -31 80 -12 22 -25 55
-29 74 -3 19 -13 42 -22 52 -8 9 -21 40 -29 68 -7 28 -22 65 -33 83 -11 18
-23 51 -27 73 -3 22 -15 49 -25 60 -9 11 -21 38 -25 60 -3 22 -17 58 -30 80
-12 22 -26 56 -30 75 -4 19 -16 46 -26 59 -10 12 -21 39 -25 60 -4 20 -15 51
-26 69 -11 18 -26 55 -33 83 -8 28 -20 59 -29 68 -8 9 -19 36 -25 59 -5 24
-16 51 -25 61 -9 10 -23 42 -32 72 -9 30 -23 62 -31 71 -8 9 -19 36 -24 59 -5
23 -18 52 -28 65 -10 13 -22 41 -26 61 -4 21 -16 50 -27 66 -11 15 -26 51 -33
79 -8 27 -21 58 -29 67 -9 10 -19 33 -22 52 -4 19 -17 48 -29 64 -13 17 -25
46 -29 66 -4 21 -13 43 -21 49 -9 7 -25 30 -37 51 -12 22 -33 42 -49 48 -26 9
-32 6 -69 -32z"/>
<path d="M25267 12687 c-8 -7 -17 -25 -20 -40 -7 -41 16 -148 40 -188 12 -19
24 -59 27 -89 4 -30 14 -94 23 -141 15 -79 15 -91 0 -170 -19 -95 -22 -214 -6
-224 5 -4 18 0 28 9 10 9 37 27 58 39 72 39 102 61 112 82 6 11 20 31 31 45
49 61 50 354 1 421 -11 15 -23 38 -26 52 -6 22 -96 121 -166 183 -30 26 -82
37 -102 21z"/>
<path d="M20000 11543 c-47 -2 -314 -8 -595 -13 -342 -7 -541 -15 -605 -25
-53 -7 -258 -19 -460 -25 -272 -8 -396 -16 -487 -31 -73 -12 -213 -23 -350
-29 -158 -6 -243 -13 -277 -24 -27 -9 -102 -21 -165 -27 -64 -6 -126 -13 -139
-15 -40 -8 -109 -80 -121 -127 -5 -23 -19 -60 -31 -82 -17 -33 -20 -58 -20
-156 0 -107 2 -119 25 -153 14 -20 25 -40 25 -44 0 -23 85 -87 146 -110 63
-23 81 -25 214 -25 89 1 178 7 230 17 47 9 182 21 300 27 118 5 254 16 301 24
151 26 342 37 576 33 190 -3 234 -6 263 -20 19 -10 53 -24 75 -31 43 -15 48
-22 90 -131 21 -56 28 -97 35 -205 5 -75 16 -172 25 -216 11 -59 19 -202 27
-535 14 -565 -4 -2277 -27 -2565 -9 -109 -18 -469 -25 -915 -9 -692 -14 -839
-40 -1270 -5 -96 -15 -472 -20 -835 -6 -363 -15 -725 -20 -805 -25 -363 -29
-540 -30 -1195 -1 -385 -1 -805 -1 -934 l1 -234 36 -33 c19 -19 42 -34 50 -34
8 0 32 -12 55 -27 38 -25 46 -26 182 -27 l142 -1 55 44 c30 23 73 66 94 95
l40 51 8 235 c17 498 23 1243 16 1920 -25 2082 -35 5792 -18 6435 6 245 14
389 25 450 9 50 20 171 25 270 8 152 13 191 34 250 14 39 26 82 26 96 0 47
116 149 190 169 25 7 63 21 85 33 33 17 68 22 205 28 91 4 197 15 235 23 46
11 161 19 330 26 211 7 271 12 320 28 33 11 85 23 115 27 63 8 92 30 148 115
36 53 37 57 36 148 0 76 -4 101 -22 135 -12 23 -28 58 -36 78 -7 19 -37 56
-67 81 l-54 46 -234 11 c-210 10 -715 12 -941 4z"/>
<path d="M33342 11319 c-29 -12 -56 -28 -59 -37 -3 -10 -19 -45 -35 -80 -26
-54 -30 -72 -26 -122 2 -34 11 -67 20 -77 8 -10 21 -36 28 -58 24 -76 113
-169 175 -185 22 -6 60 -20 84 -32 39 -18 55 -20 145 -15 55 3 133 13 171 22
51 11 172 18 445 26 206 5 407 14 445 19 202 25 477 32 1150 27 663 -5 705 -6
785 -26 47 -11 98 -21 114 -21 20 0 41 -12 68 -40 l41 -40 -5 -108 c-4 -81
-10 -117 -25 -147 -11 -22 -25 -61 -32 -87 -6 -27 -20 -63 -31 -80 -11 -18
-20 -42 -20 -53 0 -11 -14 -47 -30 -80 -16 -33 -30 -72 -30 -86 0 -14 -11 -40
-25 -59 -14 -19 -25 -46 -25 -61 0 -15 -13 -53 -30 -84 -16 -31 -30 -69 -30
-85 0 -15 -9 -39 -20 -53 -11 -13 -26 -50 -34 -81 -8 -31 -24 -70 -36 -85 -11
-16 -20 -42 -20 -59 0 -16 -13 -54 -30 -85 -16 -31 -30 -67 -30 -80 0 -14 -9
-36 -20 -50 -11 -13 -25 -48 -31 -77 -6 -29 -22 -68 -35 -88 -13 -19 -24 -46
-24 -60 0 -14 -11 -44 -24 -66 -13 -23 -27 -60 -31 -83 -4 -23 -15 -53 -25
-66 -11 -14 -24 -44 -29 -68 -6 -24 -22 -66 -36 -93 -14 -27 -25 -59 -25 -71
0 -12 -11 -36 -25 -55 -14 -19 -25 -45 -25 -59 0 -14 -14 -53 -30 -86 -17 -33
-30 -66 -30 -75 0 -8 -11 -33 -25 -55 -13 -22 -25 -49 -25 -60 0 -11 -14 -47
-30 -80 -16 -33 -30 -69 -30 -81 0 -11 -11 -35 -25 -54 -14 -19 -25 -46 -25
-61 0 -14 -13 -50 -28 -80 -16 -30 -32 -69 -35 -87 -4 -19 -15 -44 -26 -58
-10 -13 -22 -44 -25 -68 -4 -25 -16 -56 -26 -69 -11 -14 -25 -47 -30 -75 -6
-27 -20 -58 -31 -68 -10 -9 -19 -29 -19 -45 0 -15 -13 -51 -28 -81 -16 -29
-32 -71 -35 -92 -3 -22 -15 -48 -25 -60 -10 -12 -24 -45 -30 -74 -7 -29 -20
-65 -31 -80 -10 -15 -22 -44 -26 -66 -3 -21 -15 -50 -25 -65 -11 -14 -24 -48
-30 -74 -6 -27 -19 -60 -29 -75 -11 -15 -22 -44 -26 -66 -3 -21 -15 -50 -25
-65 -11 -14 -24 -48 -30 -75 -6 -27 -19 -59 -29 -72 -10 -13 -22 -44 -25 -68
-4 -25 -16 -56 -26 -69 -11 -13 -24 -46 -30 -72 -6 -26 -19 -59 -30 -72 -10
-13 -22 -44 -26 -69 -3 -24 -15 -55 -25 -67 -10 -13 -23 -46 -30 -73 -7 -27
-20 -60 -30 -74 -10 -14 -23 -47 -29 -75 -6 -27 -18 -57 -26 -66 -8 -9 -21
-40 -29 -69 -8 -29 -20 -59 -29 -69 -8 -9 -18 -34 -22 -55 -4 -22 -20 -64 -35
-94 -16 -30 -29 -64 -29 -77 0 -12 -9 -34 -20 -48 -11 -14 -23 -40 -26 -59 -4
-18 -17 -51 -29 -73 -13 -22 -26 -57 -30 -78 -4 -20 -16 -49 -28 -63 -11 -14
-24 -46 -28 -71 -5 -24 -18 -56 -29 -70 -11 -14 -23 -43 -26 -64 -4 -21 -17
-53 -30 -71 -13 -17 -24 -42 -24 -53 0 -12 -11 -43 -25 -68 -13 -25 -29 -65
-36 -89 -6 -24 -19 -54 -29 -68 -9 -14 -20 -43 -24 -64 -4 -22 -16 -51 -27
-64 -10 -13 -21 -40 -25 -61 -3 -20 -17 -54 -29 -76 -13 -22 -26 -57 -30 -78
-4 -20 -15 -47 -25 -60 -9 -12 -23 -46 -30 -74 -6 -29 -20 -63 -30 -76 -10
-13 -22 -41 -26 -63 -3 -21 -17 -57 -29 -79 -13 -22 -26 -57 -30 -79 -3 -21
-15 -50 -25 -65 -11 -14 -24 -48 -30 -74 -6 -27 -17 -59 -26 -72 -8 -13 -22
-47 -29 -75 -8 -29 -20 -59 -28 -69 -8 -9 -20 -40 -26 -69 -6 -29 -20 -65 -30
-80 -11 -15 -22 -44 -26 -65 -3 -21 -17 -59 -31 -84 -13 -25 -24 -58 -24 -73
0 -15 -10 -42 -23 -61 -12 -19 -28 -58 -35 -87 -7 -30 -21 -65 -32 -79 -11
-14 -20 -35 -20 -46 0 -11 -12 -45 -27 -76 -25 -52 -27 -65 -28 -191 0 -129 1
-137 28 -184 15 -27 27 -58 27 -70 0 -12 27 -49 63 -87 47 -50 76 -72 122 -90
59 -24 64 -24 385 -23 179 0 469 8 645 18 176 9 590 21 920 26 397 6 651 14
750 24 83 8 277 20 433 25 278 10 283 11 319 36 21 14 42 25 47 25 15 0 80 72
99 110 9 19 24 46 31 60 14 26 45 140 53 197 4 22 -1 41 -16 62 -12 16 -21 33
-21 38 -1 17 -80 74 -112 79 -18 3 -54 12 -80 20 -37 12 -58 13 -100 5 -29 -6
-231 -16 -448 -21 -364 -9 -447 -14 -705 -41 -49 -5 -274 -13 -500 -19 -282
-6 -446 -14 -525 -25 -72 -11 -192 -17 -320 -18 l-205 -2 -70 29 c-109 45
-107 41 -103 236 3 140 6 170 22 200 11 19 23 58 27 87 4 29 17 66 28 82 12
16 26 53 31 82 6 29 17 60 25 69 8 9 20 40 27 70 7 30 23 70 35 89 13 19 23
47 23 64 0 17 11 49 24 71 13 23 27 59 31 81 4 22 15 52 26 67 10 15 24 51 30
80 6 29 18 60 26 69 8 10 20 40 28 69 7 28 20 62 29 74 8 13 21 49 30 81 8 31
21 64 29 73 8 10 20 41 26 70 6 29 20 65 30 80 11 15 22 45 26 67 4 21 15 51
24 65 10 14 24 49 31 77 6 29 20 63 30 75 9 13 20 41 24 63 4 21 19 59 32 84
13 25 24 57 24 71 0 14 10 41 23 60 13 19 29 60 35 90 7 30 20 62 29 72 8 9
19 38 24 63 5 26 17 57 28 71 11 14 22 44 26 67 4 23 18 59 31 79 13 21 24 48
24 60 0 13 14 50 30 83 16 33 30 72 30 86 0 15 9 37 19 51 11 14 25 47 32 74
6 27 21 64 32 83 11 18 24 53 28 78 5 24 18 56 28 69 11 14 23 45 27 69 3 24
17 59 30 76 13 18 24 44 24 58 0 14 14 53 30 86 17 33 30 69 30 81 0 12 9 33
20 46 10 14 24 47 30 73 6 26 22 67 35 90 14 23 25 53 25 66 0 13 12 42 25 64
14 22 25 49 25 60 0 11 14 47 30 80 16 33 30 69 30 79 0 11 11 38 24 60 13 23
27 58 31 78 4 20 18 51 31 69 13 19 24 47 24 65 0 17 9 43 20 57 11 13 26 50
34 81 8 31 24 69 34 84 11 15 22 44 25 66 3 21 13 46 21 55 8 9 22 43 31 76
10 33 24 68 32 77 9 10 19 38 24 63 5 25 17 57 28 72 11 16 25 50 31 77 6 27
20 60 30 74 11 13 20 35 20 47 0 12 11 43 25 69 14 26 30 68 36 94 7 26 18 54
26 63 8 10 20 39 27 65 7 27 23 65 34 84 12 19 22 44 22 56 0 12 11 41 24 66
13 25 27 60 31 79 4 19 16 49 27 67 11 18 26 55 33 83 8 28 20 58 28 68 8 9
19 38 26 64 6 27 19 59 27 72 9 13 22 47 29 75 8 29 21 60 29 69 9 10 19 33
22 52 4 19 17 52 29 74 13 22 26 57 30 78 4 20 16 48 26 61 10 13 23 45 29 71
6 26 20 60 31 76 10 15 23 48 28 74 5 25 15 53 24 63 8 9 20 37 27 62 6 25 20
59 30 75 10 17 24 50 30 75 7 25 19 53 27 62 8 9 19 36 24 60 6 23 17 50 25
59 9 10 22 43 31 76 8 32 23 67 33 78 10 11 21 39 25 62 3 22 15 49 26 58 10
10 22 34 25 54 4 20 20 60 35 90 16 30 29 61 29 70 0 9 11 32 24 51 12 19 26
51 30 71 3 20 15 44 25 54 11 9 22 34 26 56 4 21 15 49 26 63 10 13 24 48 29
77 6 30 20 74 32 97 28 59 20 101 -29 151 -37 39 -42 41 -142 56 -56 8 -121
20 -144 26 -25 6 -257 14 -562 20 -489 8 -746 18 -1015 40 -63 5 -585 13
-1160 19 -585 5 -1067 14 -1095 19 -70 14 -83 13 -143 -10z"/>
<path d="M20935 7614 c-22 -8 -58 -22 -81 -30 -73 -26 -72 -25 -67 -469 3
-222 0 -491 -6 -625 -6 -129 -16 -683 -21 -1230 -10 -1042 -17 -1208 -50
-1321 l-21 -69 -67 -31 -67 -30 -250 -2 c-276 -2 -292 -5 -320 -62 -22 -47
-16 -178 10 -203 4 -4 149 -9 323 -12 l317 -5 57 -33 c31 -18 61 -43 65 -55 4
-12 6 -215 4 -452 -3 -406 -2 -435 17 -516 12 -48 26 -124 31 -170 6 -46 17
-90 26 -99 8 -9 22 -40 30 -68 9 -29 20 -52 24 -52 5 0 18 -19 29 -43 25 -53
163 -177 197 -177 7 0 24 -9 39 -21 14 -11 61 -27 103 -36 43 -8 92 -23 108
-31 23 -13 69 -17 197 -20 l166 -4 37 34 c69 63 92 173 52 248 -30 58 -55 70
-147 70 -41 1 -136 9 -210 19 -104 13 -144 23 -175 42 -46 28 -145 125 -145
142 0 7 -13 39 -28 72 -26 54 -29 75 -36 200 -3 77 -11 169 -16 205 -15 100
-11 330 8 492 15 128 21 150 42 173 13 14 28 25 33 25 6 0 35 12 66 28 l56 27
317 3 317 3 35 40 c36 39 36 40 36 129 0 84 -2 92 -28 121 -36 40 -76 47 -232
38 -189 -11 -530 -10 -572 1 -30 9 -39 18 -52 53 -35 97 -47 390 -26 667 5 69
12 267 15 440 10 576 15 744 30 860 8 63 19 264 24 445 12 411 19 532 37 665
8 58 17 193 21 300 8 247 5 259 -79 300 -76 38 -122 44 -173 24z"/>
<path d="M31696 7587 c-54 -4 -110 -14 -125 -22 -14 -7 -49 -25 -77 -38 -67
-32 -209 -174 -223 -222 -5 -19 -18 -47 -29 -62 -11 -16 -23 -51 -27 -78 -5
-27 -18 -72 -30 -99 -15 -32 -25 -81 -29 -134 -4 -45 -16 -106 -27 -134 -15
-40 -22 -91 -30 -217 -5 -92 -16 -193 -24 -226 -10 -39 -19 -149 -25 -320 -12
-346 -18 -441 -38 -630 -15 -140 -17 -292 -17 -1220 0 -979 1 -1066 18 -1143
10 -45 24 -147 31 -226 10 -96 20 -152 30 -169 9 -13 21 -53 27 -88 6 -35 19
-75 29 -89 9 -14 21 -41 25 -60 4 -19 18 -48 31 -65 12 -16 26 -42 29 -58 4
-15 13 -31 20 -35 6 -4 20 -20 31 -37 62 -99 166 -203 245 -246 13 -7 29 -18
34 -25 6 -8 29 -20 53 -28 24 -9 49 -22 57 -30 8 -8 38 -19 67 -25 29 -7 60
-19 69 -27 9 -8 57 -21 105 -29 49 -7 109 -22 134 -31 38 -16 76 -19 245 -19
181 0 205 2 255 21 31 12 82 25 115 29 33 4 75 16 94 28 18 11 54 24 79 29 25
4 55 16 66 26 12 10 40 24 62 30 23 7 44 18 47 26 3 8 23 19 44 26 21 7 47 20
58 30 11 10 34 25 50 34 53 29 133 89 184 137 16 15 35 30 42 35 39 24 59 67
59 124 0 55 -2 59 -45 99 -44 40 -46 41 -119 41 -94 0 -116 -9 -179 -70 -28
-28 -57 -50 -64 -50 -8 0 -16 -7 -20 -16 -3 -9 -29 -27 -57 -41 -28 -13 -62
-30 -76 -38 -14 -8 -34 -15 -44 -15 -11 0 -38 -11 -60 -24 -26 -15 -66 -26
-111 -31 -38 -4 -92 -16 -120 -27 -44 -18 -73 -21 -225 -21 -144 0 -183 3
-220 17 -25 10 -77 23 -116 30 -41 7 -82 21 -97 33 -15 11 -42 24 -60 27 -19
3 -44 17 -57 31 -13 14 -28 25 -32 25 -17 0 -111 85 -154 140 -24 30 -53 66
-64 80 -34 41 -72 103 -83 135 -5 16 -19 42 -29 57 -10 15 -23 51 -28 81 -4
29 -18 72 -31 96 -20 39 -22 58 -23 210 l-1 167 30 46 c17 25 45 58 64 74 l35
29 615 5 c555 5 620 7 661 23 25 9 90 22 145 28 62 7 112 19 131 30 17 10 53
23 81 29 28 6 59 20 69 31 9 10 22 19 29 19 15 0 81 69 95 100 6 14 20 41 31
60 10 19 19 50 19 68 0 18 11 58 24 90 17 40 26 87 31 157 3 55 16 145 28 200
20 92 22 128 22 455 0 307 -2 367 -18 440 -10 47 -25 162 -32 255 -8 109 -19
184 -29 208 -9 21 -21 82 -26 137 -6 64 -17 114 -29 139 -11 21 -23 70 -27
107 -4 41 -17 87 -31 113 -12 24 -23 58 -23 75 0 17 -14 58 -30 91 -16 33 -30
72 -30 87 0 15 -11 44 -25 64 -14 20 -25 43 -25 52 0 18 -87 199 -99 206 -5 3
-12 18 -15 32 -4 15 -18 41 -32 59 -13 17 -24 37 -24 42 0 6 -15 29 -32 51
-18 23 -44 57 -58 77 -63 93 -200 241 -302 328 -54 46 -110 87 -119 87 -5 0
-17 8 -27 18 -21 21 -136 92 -149 92 -5 0 -24 11 -42 24 -17 13 -52 29 -77 35
-25 7 -58 20 -72 31 -35 24 -216 38 -356 27z m391 -359 c21 -14 51 -29 67 -32
16 -4 41 -16 55 -27 150 -117 206 -166 266 -230 80 -87 174 -203 192 -237 7
-13 21 -35 33 -49 11 -14 20 -32 20 -39 0 -7 9 -18 19 -24 11 -5 25 -27 31
-47 7 -21 21 -47 31 -58 10 -11 22 -39 27 -62 5 -23 19 -54 31 -69 11 -15 21
-36 21 -48 0 -11 14 -48 30 -81 17 -33 30 -73 30 -89 0 -16 9 -44 20 -62 12
-18 25 -61 31 -96 6 -35 19 -83 30 -108 11 -25 25 -83 29 -130 5 -47 18 -110
29 -140 13 -37 21 -96 26 -180 3 -69 14 -170 23 -225 24 -138 23 -620 0 -780
-9 -60 -19 -175 -23 -255 -6 -144 -6 -145 -41 -197 -20 -31 -42 -53 -52 -53
-9 0 -38 -11 -64 -25 -31 -16 -71 -27 -120 -31 -40 -4 -95 -16 -123 -26 -38
-15 -89 -22 -215 -28 -91 -5 -210 -16 -265 -26 -83 -15 -159 -18 -455 -19
l-355 0 -42 27 c-45 30 -63 54 -63 88 0 11 -10 40 -22 63 -21 40 -22 60 -29
362 -13 615 3 1358 32 1456 5 19 16 135 24 259 9 156 19 239 30 270 10 25 21
98 25 167 6 85 15 134 29 165 10 24 23 76 27 117 4 46 15 90 30 118 13 24 24
56 24 71 0 15 7 38 15 52 8 14 23 43 34 65 11 22 37 56 56 75 20 19 47 45 59
58 13 12 39 27 57 33 19 7 42 18 51 27 28 24 77 31 190 28 95 -2 111 -5 145
-28z"/>
<path d="M25905 7580 c-95 -5 -144 -12 -180 -27 -27 -11 -77 -23 -109 -27 -49
-5 -66 -12 -92 -39 l-32 -32 -6 -1445 c-6 -1365 -13 -1822 -37 -2195 -15 -239
-23 -1504 -10 -1655 9 -106 29 -249 47 -338 6 -32 40 -62 68 -62 13 0 46 18
74 41 62 48 72 77 72 204 1 90 10 211 30 400 6 55 14 278 19 495 l8 395 31 67
c32 68 70 108 103 108 10 0 44 -22 76 -48 32 -27 69 -55 83 -62 14 -7 32 -19
40 -26 49 -44 89 -74 97 -74 10 0 53 -31 116 -82 35 -28 62 -47 106 -73 19
-11 48 -31 65 -45 32 -26 51 -39 100 -68 16 -9 44 -29 61 -44 18 -16 36 -28
41 -28 4 0 18 -9 30 -21 12 -11 35 -28 52 -37 50 -28 117 -74 120 -84 2 -5 19
-15 39 -23 34 -14 60 -33 127 -88 19 -15 38 -27 43 -27 6 0 27 -13 48 -30 21
-16 42 -30 47 -30 6 0 23 -10 38 -23 15 -12 40 -30 56 -39 16 -10 49 -31 74
-48 25 -16 61 -37 80 -46 19 -9 42 -25 51 -36 10 -14 38 -25 75 -33 100 -20
152 9 223 122 29 46 38 109 22 154 -14 39 -82 93 -144 115 -23 8 -48 21 -57
28 -8 7 -33 19 -55 26 -22 7 -49 20 -60 30 -11 10 -37 23 -57 29 -21 7 -40 16
-43 21 -3 5 -76 43 -163 86 -86 42 -164 83 -172 89 -8 7 -32 18 -52 24 -20 7
-42 18 -48 26 -6 8 -28 19 -47 26 -20 6 -51 22 -71 35 -19 13 -42 24 -52 24
-9 0 -25 9 -34 19 -10 11 -31 23 -47 26 -16 4 -42 17 -57 29 -15 13 -43 28
-62 35 -19 6 -43 20 -55 30 -11 10 -32 21 -47 25 -15 3 -35 14 -45 24 -10 10
-29 25 -43 34 -15 9 -31 32 -37 51 -9 30 -8 38 6 51 10 9 21 16 25 16 4 0 31
11 59 24 29 14 77 28 107 32 30 4 73 17 96 30 22 13 48 24 57 24 15 0 115 46
157 71 8 5 39 21 68 35 28 14 52 30 52 35 0 5 17 18 38 29 48 27 99 64 126 92
12 13 42 41 66 64 79 73 169 182 209 255 11 20 27 39 35 42 8 3 17 19 21 36 3
16 13 35 22 42 8 7 25 36 38 65 12 28 28 54 34 58 6 4 15 26 22 49 6 23 17 49
26 58 8 10 20 40 28 69 8 29 21 60 29 69 9 10 20 41 26 70 5 30 19 68 29 85
10 17 22 59 26 93 4 34 16 79 27 100 12 25 23 73 28 137 6 57 19 125 32 160
22 59 23 71 23 431 l0 370 -27 77 c-16 42 -28 96 -28 120 0 25 -9 60 -21 83
-12 22 -28 62 -35 89 -7 26 -19 55 -27 65 -9 9 -20 34 -26 57 -6 22 -20 49
-30 58 -11 10 -22 29 -26 44 -3 14 -18 40 -32 56 -14 17 -40 56 -59 86 -41 67
-55 84 -169 203 -102 106 -218 207 -239 207 -8 0 -27 11 -43 24 -15 13 -46 33
-68 45 -22 12 -47 25 -55 30 -52 31 -146 71 -165 71 -12 0 -44 12 -71 26 -32
17 -74 29 -124 34 -41 4 -95 17 -120 28 -39 17 -73 21 -255 25 -115 2 -268 1
-340 -3z m635 -430 c104 -9 147 -18 186 -36 28 -13 67 -24 86 -24 19 0 46 -8
59 -18 13 -11 44 -26 69 -34 44 -15 116 -55 201 -112 62 -42 203 -185 227
-232 11 -21 30 -47 41 -56 12 -10 21 -24 21 -31 0 -7 11 -28 25 -47 14 -19 30
-52 36 -74 6 -22 19 -51 30 -64 10 -14 19 -36 19 -50 0 -14 11 -49 25 -78 16
-34 28 -84 35 -141 5 -48 17 -110 26 -138 34 -103 29 -611 -7 -703 -6 -15 -15
-76 -19 -135 -6 -79 -14 -119 -30 -149 -12 -23 -24 -64 -27 -92 -3 -28 -13
-63 -23 -77 -10 -14 -23 -44 -29 -67 -7 -22 -25 -66 -41 -97 -17 -32 -30 -63
-30 -70 0 -7 -7 -18 -15 -25 -8 -7 -24 -31 -35 -54 -75 -154 -313 -407 -461
-490 -94 -52 -158 -84 -191 -95 -20 -7 -42 -18 -48 -26 -6 -8 -37 -19 -68 -25
-31 -7 -65 -19 -74 -27 -9 -8 -54 -21 -100 -27 -46 -7 -99 -21 -118 -32 -30
-16 -61 -19 -230 -22 l-195 -4 -35 36 c-75 78 -83 215 -100 1631 -5 473 -12
883 -15 910 -2 28 -10 178 -16 336 l-11 285 22 55 c39 92 37 91 215 100 86 4
160 10 163 14 9 9 267 0 432 -15z"/>
<path d="M28695 7580 c-86 -4 -143 -12 -167 -23 -21 -10 -71 -22 -112 -28 -63
-9 -79 -16 -105 -43 l-31 -32 -5 -1163 c-6 -1365 -19 -2298 -40 -2716 -17
-349 -20 -1284 -4 -1420 5 -49 16 -144 23 -210 7 -66 16 -127 20 -135 4 -8 21
-25 38 -37 l32 -22 31 19 c16 11 42 28 57 37 36 23 45 55 53 188 4 61 13 160
21 220 9 69 18 275 24 550 5 242 12 460 15 485 8 62 44 149 74 183 41 45 62
44 126 -5 32 -23 67 -49 79 -57 11 -8 31 -24 43 -34 12 -11 31 -25 41 -31 10
-6 33 -20 51 -31 33 -20 91 -63 141 -105 14 -12 34 -26 45 -33 74 -43 91 -55
116 -77 16 -14 51 -38 80 -55 28 -16 65 -41 83 -55 17 -14 49 -37 71 -51 67
-43 88 -58 135 -94 25 -19 60 -42 79 -50 19 -8 40 -24 47 -34 7 -10 27 -24 44
-31 16 -7 30 -16 30 -21 0 -4 19 -17 43 -28 23 -11 62 -36 87 -56 25 -19 60
-41 78 -50 19 -8 46 -25 62 -37 15 -13 51 -36 80 -53 29 -16 65 -41 82 -54 16
-13 54 -30 84 -37 47 -11 62 -10 100 3 24 8 53 27 65 41 82 107 79 101 78 171
0 36 -3 74 -7 83 -8 20 -64 62 -112 84 -19 8 -73 34 -119 57 -45 23 -95 48
-110 55 -14 7 -37 19 -51 27 -14 7 -92 48 -175 90 -82 42 -161 83 -175 90 -14
8 -64 33 -112 55 -48 23 -90 45 -93 50 -3 5 -22 14 -43 21 -20 6 -46 19 -57
29 -11 10 -36 23 -56 29 -20 7 -44 20 -54 31 -9 10 -31 22 -49 25 -17 4 -42
17 -56 30 -14 12 -38 26 -54 29 -17 4 -44 20 -62 36 -18 15 -37 29 -44 32 -6
2 -15 20 -19 40 -7 29 -5 40 8 51 31 26 136 65 194 72 32 4 68 16 81 26 14 11
39 22 57 26 39 8 255 116 284 142 11 10 34 26 50 35 56 31 91 61 197 167 104
106 148 160 188 232 11 20 25 37 31 37 5 0 19 19 30 43 25 51 58 111 87 159
12 19 22 42 22 50 0 8 11 29 24 47 14 18 27 50 31 71 4 21 17 53 31 71 13 18
24 47 24 64 0 18 11 53 25 78 13 26 27 70 31 99 4 29 17 78 29 108 13 32 25
89 29 136 3 44 15 107 27 139 45 129 49 839 5 924 -10 19 -24 72 -32 118 -7
47 -22 99 -32 116 -11 18 -22 47 -26 65 -3 19 -14 46 -25 60 -10 15 -24 44
-30 64 -7 21 -17 41 -23 44 -5 3 -18 25 -28 48 -9 22 -27 50 -39 60 -11 11
-21 24 -21 31 0 14 -35 62 -115 158 -62 75 -91 104 -194 197 -93 84 -113 100
-127 100 -7 0 -25 10 -41 23 -34 29 -157 97 -173 97 -7 0 -24 9 -39 20 -16 10
-50 24 -77 30 -26 6 -63 20 -81 31 -20 13 -63 24 -110 29 -43 5 -100 17 -128
28 -42 17 -83 20 -255 25 -113 2 -263 1 -335 -3z m632 -429 c103 -9 145 -17
185 -36 29 -14 66 -25 82 -25 16 0 48 -11 70 -24 23 -13 55 -27 72 -30 17 -4
46 -18 65 -32 18 -13 38 -24 44 -24 6 0 20 -9 32 -19 11 -10 35 -26 53 -36 46
-24 205 -185 230 -234 11 -23 24 -41 29 -41 4 0 16 -18 26 -40 10 -22 24 -45
31 -51 7 -6 16 -25 19 -42 4 -18 17 -48 30 -67 12 -19 26 -53 30 -75 4 -22 15
-54 26 -72 12 -19 23 -64 29 -116 6 -46 18 -102 27 -123 16 -35 18 -76 18
-389 -1 -314 -2 -355 -19 -395 -10 -25 -21 -88 -26 -140 -5 -64 -14 -109 -28
-136 -11 -22 -25 -66 -31 -98 -6 -33 -17 -66 -25 -75 -8 -9 -20 -37 -26 -63
-7 -26 -23 -62 -36 -79 -13 -18 -24 -40 -24 -48 0 -9 -14 -36 -30 -60 -17 -24
-30 -47 -30 -51 0 -9 -59 -98 -83 -125 -10 -11 -44 -53 -77 -92 -33 -40 -93
-100 -133 -133 -39 -33 -81 -69 -92 -80 -12 -11 -26 -20 -32 -20 -6 0 -24 -11
-40 -24 -15 -13 -39 -27 -53 -31 -14 -4 -41 -18 -60 -31 -19 -13 -41 -24 -50
-24 -8 0 -37 -14 -65 -30 -27 -16 -61 -30 -75 -30 -14 0 -46 -11 -71 -24 -25
-14 -77 -29 -116 -34 -38 -6 -85 -18 -104 -28 -28 -15 -65 -19 -216 -22 -101
-2 -193 -2 -205 2 -37 9 -81 74 -90 131 -7 47 -13 158 -38 735 -5 135 -15 648
-20 1140 -6 492 -14 953 -19 1023 -9 134 0 212 34 276 17 33 47 40 180 42 50
0 110 4 135 9 57 11 295 6 467 -9z"/>
<path d="M23220 7446 c-30 -13 -79 -27 -109 -31 -30 -4 -69 -18 -89 -31 -19
-13 -45 -24 -56 -24 -12 0 -37 -11 -55 -24 -19 -14 -46 -28 -61 -31 -15 -3
-36 -15 -46 -26 -10 -12 -33 -27 -50 -34 -18 -7 -42 -22 -53 -32 -47 -40 -111
-109 -111 -118 0 -5 -14 -30 -30 -54 -17 -24 -30 -51 -30 -61 0 -9 -11 -31
-25 -50 -14 -19 -25 -48 -25 -64 0 -17 -11 -55 -25 -84 -13 -29 -27 -76 -31
-105 -4 -29 -17 -77 -29 -107 -13 -32 -25 -89 -29 -138 -4 -45 -15 -105 -26
-133 -14 -33 -23 -93 -30 -182 -5 -73 -16 -154 -25 -182 -10 -31 -21 -134 -30
-275 -8 -124 -22 -265 -32 -315 -16 -81 -18 -159 -18 -815 0 -702 1 -729 22
-850 12 -69 25 -195 29 -280 4 -107 12 -174 25 -215 11 -33 23 -112 29 -176 6
-76 16 -131 30 -161 11 -25 23 -78 26 -119 5 -47 16 -90 31 -118 12 -24 23
-61 23 -81 0 -20 11 -58 25 -84 14 -26 28 -65 31 -86 4 -22 17 -54 30 -72 13
-17 24 -39 24 -49 0 -9 14 -33 30 -54 17 -21 30 -42 30 -47 0 -23 168 -168
195 -168 7 0 20 -9 30 -20 9 -10 34 -24 54 -31 20 -6 45 -20 56 -30 11 -10 41
-23 67 -28 25 -6 62 -20 80 -31 90 -53 554 -49 657 6 25 13 58 24 72 24 14 0
43 11 63 25 20 14 49 28 64 31 15 4 38 17 52 29 14 13 36 26 50 30 24 8 48 24
113 76 18 14 46 33 62 42 28 15 81 60 168 143 21 20 44 50 52 68 9 17 35 65
60 106 24 41 44 80 45 86 0 7 14 38 30 69 17 31 30 65 30 75 0 9 8 28 19 41
10 13 24 48 30 78 6 30 20 68 30 85 11 17 22 54 26 81 4 28 16 66 27 85 11 19
24 63 29 97 5 34 18 79 28 100 11 21 23 65 27 98 3 33 17 85 29 115 12 30 25
87 29 126 3 39 15 91 26 116 11 26 23 86 29 144 5 54 18 122 29 149 12 32 22
89 26 158 5 65 15 131 27 165 14 39 23 104 30 207 5 83 16 175 25 205 24 86
37 464 31 960 -5 420 -6 448 -26 505 -12 33 -25 107 -31 167 -6 72 -16 120
-29 146 -11 22 -23 63 -27 93 -4 30 -17 72 -29 94 -13 22 -26 57 -29 77 -4 21
-13 44 -21 51 -7 8 -23 35 -35 60 -12 25 -28 51 -36 58 -8 6 -14 18 -14 25 0
7 -35 48 -77 89 -102 100 -106 104 -141 123 -57 33 -95 57 -121 78 -14 12 -37
25 -51 29 -14 4 -36 18 -50 30 -14 13 -41 26 -60 30 -19 4 -44 15 -55 25 -11
11 -41 24 -67 29 -25 6 -61 20 -80 30 -18 11 -58 23 -88 27 -30 3 -75 16 -100
28 -42 19 -63 21 -345 23 -296 3 -301 2 -355 -21z m375 -276 c22 -6 85 -15
140 -21 61 -6 111 -17 130 -28 16 -10 52 -24 79 -30 27 -7 61 -20 75 -30 14
-10 40 -23 56 -28 28 -10 61 -29 143 -85 107 -73 230 -195 265 -263 8 -17 24
-39 36 -49 12 -11 21 -25 21 -31 0 -7 9 -24 20 -38 12 -14 27 -47 35 -72 7
-26 21 -55 30 -65 8 -9 20 -41 25 -71 5 -30 17 -71 28 -91 11 -21 22 -70 26
-113 4 -42 16 -100 28 -128 16 -42 22 -88 29 -232 4 -99 13 -211 18 -250 15
-97 13 -241 -4 -430 -8 -88 -15 -212 -15 -275 0 -133 -14 -261 -35 -320 -8
-22 -17 -93 -21 -158 -4 -80 -14 -139 -29 -187 -13 -39 -26 -109 -29 -158 -4
-54 -14 -105 -25 -130 -11 -23 -24 -84 -30 -134 -5 -50 -17 -106 -27 -124 -9
-18 -21 -67 -26 -108 -5 -43 -18 -89 -29 -107 -10 -18 -23 -64 -28 -103 -5
-39 -18 -85 -29 -103 -11 -18 -22 -59 -26 -90 -3 -31 -17 -78 -31 -104 -14
-26 -25 -61 -25 -78 0 -17 -11 -51 -24 -76 -13 -25 -29 -68 -36 -97 -6 -29
-18 -57 -26 -64 -8 -6 -19 -30 -25 -52 -6 -23 -20 -53 -31 -67 -11 -14 -38
-54 -60 -90 -46 -72 -191 -221 -241 -246 -17 -9 -42 -25 -55 -35 -13 -10 -37
-21 -55 -25 -17 -3 -43 -15 -57 -26 -16 -11 -57 -23 -100 -29 -41 -6 -83 -15
-94 -21 -36 -19 -177 -22 -226 -4 -25 9 -74 19 -110 23 -43 4 -84 16 -119 34
-30 16 -60 29 -69 29 -51 0 -224 155 -241 216 -5 19 -19 46 -30 60 -12 15 -21
38 -21 53 0 14 -14 53 -30 86 -17 35 -30 76 -30 98 0 21 -11 63 -24 95 -14 33
-27 91 -31 137 -4 44 -16 102 -26 129 -14 33 -23 92 -29 190 -5 77 -17 164
-25 191 -11 34 -19 119 -26 260 -5 116 -15 302 -21 415 -16 262 -16 639 0 945
7 132 16 335 21 450 7 143 15 226 26 260 9 28 20 109 25 181 5 79 15 147 25
170 8 21 22 86 30 144 8 65 21 120 33 141 11 19 22 59 25 90 3 31 14 74 25 95
11 22 23 55 27 74 4 19 17 51 30 70 13 19 26 46 30 60 17 56 150 203 219 242
17 10 51 27 76 38 25 11 61 29 81 40 19 10 64 22 100 26 35 3 87 12 114 20 60
15 145 17 200 4z"/>
</g>
</svg>
